<svg xmlns="http://www.w3.org/2000/svg" xmlns:xlink="http://www.w3.org/1999/xlink"><symbol fill="none" viewBox="0 0 31 31" id="agreement-icon" xmlns="http://www.w3.org/2000/svg"><path d="M15.5 0C6.9 0 0 6.9 0 15.5S6.9 31 15.5 31 31 24.1 31 15.5 24.1 0 15.5 0zm0 28.4c-7.1 0-12.9-5.8-12.9-12.9 0-7.1 5.8-12.9 12.9-12.9 7.1 0 12.9 5.8 12.9 12.9 0 7.1-5.8 12.9-12.9 12.9z" fill="#149446"/><path d="M15.5 12.5c-.7 0-1.3.6-1.3 1.3v8.8c0 .7.6 1.3 1.3 1.3.7 0 1.3-.6 1.3-1.3v-8.8c0-.7-.6-1.3-1.3-1.3zM15.5 7.2c-.7-.1-1.3.6-1.3 1.3v.2c0 .7.5 1.2 1.3 1.2.7 0 1.3-.6 1.3-1.3v-.3c0-.6-.6-1.1-1.3-1.1z" fill="#149446"/></symbol><symbol fill="none" viewBox="0 0 35 28" id="arrow-right" xmlns="http://www.w3.org/2000/svg"><g clip-path="url(#bclip0_2_372)"><path d="M24.3 16.9H0v-5.7h24.3L13 0h7.6l14 14-14 14H13l11.3-11.1z" fill="#179A53"/></g><defs><clipPath id="bclip0_2_372"><path fill="#fff" d="M0 0h34.6v28H0z"/></clipPath></defs></symbol><symbol viewBox="0 0 32 32" id="arrow-up" xmlns="http://www.w3.org/2000/svg"><path d="M.256 23.481a1.063 1.063 0 001.813.75l14.119-14.119 13.913 13.912c.413.413 1.087.413 1.5 0s.413-1.087 0-1.5L16.938 7.855a1.065 1.065 0 00-1.5 0L.569 22.724a1.051 1.051 0 00-.313.756z"/></symbol><symbol fill="none" viewBox="0 0 121 26" id="bashneft" xmlns="http://www.w3.org/2000/svg"><path fill-rule="evenodd" clip-rule="evenodd" d="M102.428 10.121h2.72v7.708h2.533V10.12h3.095v-1.95h-9.005l.657 1.95zm15.008 1.393h-3.189V8.171h-2.533v9.658h5.722c1.782 0 3.47-.743 3.47-3.158.094-2.507-1.594-3.157-3.47-3.157zm-.282 4.365h-2.907V13.37h2.907c1.22 0 1.407.558 1.407 1.3 0 .836-.094 1.208-1.407 1.208zm-78.79-4.086h-3.471V10.12h5.534l.657-1.95H32.36v9.658h6.004c1.782 0 3.47-.558 3.47-3.065 0-2.414-1.688-2.971-3.47-2.971zm-.282 4.086h-3.189V13.65h3.19c1.219 0 1.406.371 1.406 1.114 0 .836-.187 1.115-1.407 1.115zm26.92 0h-3.095V8.17h-2.439v7.708h-3.095V8.17h-2.439v9.658h13.413V8.17H64.91v7.708h.093zm11.256-3.993h-4.596V8.17h-2.533v9.658h2.533v-3.993h4.596v3.993h2.533V8.17h-2.533v3.715zm20.917-3.807h-.563V7.15h-2.25v.929h-.563c-2.908 0-4.784 1.671-4.784 4.921 0 2.229 1.125 4.829 4.69 4.921h.656v.929h2.251v-.929h.657c3.564-.092 4.69-2.692 4.69-4.921 0-3.25-1.876-4.829-4.784-4.921zm-2.908 7.8h-.656c-1.126 0-2.345-.279-2.345-2.879 0-2.879 1.313-2.879 2.439-2.971h.562v5.85zm2.908 0h-.656v-5.85h.562c1.126 0 2.44 0 2.44 2.971 0 2.693-1.22 2.879-2.346 2.879zM87.89 10.12l.657-1.95h-7.973v9.658h7.785v-1.95h-5.346v-2.136h4.596v-1.95h-4.596v-1.764h4.877v.092zm-42.397-1.95L42.21 17.83h2.533l.75-2.415h4.034l.844 2.415h2.626l-3.47-9.658h-4.034zm.657 5.293l1.125-3.528h.47l1.125 3.528h-2.72zM13.132 0C5.909 0 0 5.85 0 13s5.91 13 13.132 13c7.222 0 13.132-5.85 13.132-13S20.354 0 13.132 0zm0 22.471v-7.057L2.814 6.78C3.752 5.2 5.065 3.9 6.66 2.879l6.472 5.478v7.057L23.45 6.871c1.031 1.672 1.594 3.622 1.688 5.665L13.132 22.47z" fill="#C7CACB"/></symbol><symbol fill="none" viewBox="0 0 20 16" id="camera" xmlns="http://www.w3.org/2000/svg"><g clip-path="url(#eclip0_37_317)" fill="#fff"><path d="M10.1 13.1c2.4 0 4.4-2 4.4-4.4 0-2.4-2-4.4-4.4-4.4-2.4 0-4.4 2-4.4 4.4 0 2.4 2 4.4 4.4 4.4zM7 8.6c0-1.7 1.4-3.1 3.1-3.1 1.7 0 3.1 1.4 3.1 3.1 0 1.7-1.4 3.1-3.1 3.1-1.7 0-3.1-1.3-3.1-3.1z"/><path d="M14.5 2.2L13.1 0h-6L5.7 2.2h-.8v-.9h-4v.9H0v13.3h20V2.2h-5.5zm-2.1-.9l1.3 2.2h5v10.7H1.3V3.5h5.2l1.3-2.2h4.6z"/><path d="M16.6 6.7c.6 0 1-.4 1-1s-.4-1-1-1-1 .4-1 1 .5 1 1 1z"/></g><defs><clipPath id="eclip0_37_317"><path fill="#fff" d="M0 0h20v15.5H0z"/></clipPath></defs></symbol><symbol fill="none" viewBox="0 0 22 16" id="envelope" xmlns="http://www.w3.org/2000/svg"><path d="M21 1H1v14h20V1z" stroke="#149446" stroke-width="2" stroke-linecap="square"/><path d="M1 1l10 9 10-9" stroke="#149446" stroke-width="2" stroke-linecap="round"/></symbol><symbol fill="none" viewBox="0 0 154 113" id="footer__logo" xmlns="http://www.w3.org/2000/svg"><path fill-rule="evenodd" clip-rule="evenodd" d="M10.477 28.142h4.306v21.936h-4.306V28.142zm10.477 0h4.306v21.936h-4.306V28.142zm-5.167-4.474h4.306v26.41h-4.306v-26.41zM31.431 14.865h4.306V25.4l-4.306 4.33V14.864zM0 14.865h4.306v15.009L0 25.544v-10.68zm5.31-5.196h4.306v25.544l-4.306-4.33V9.67zm9.616 17.607h-4.305V4.329h4.305v22.947zM15.787 0h4.306v22.802h-4.306V0zm9.617 27.276h-4.306V4.329h4.306v22.947zm.86-17.607h4.306v21.07l-4.305 4.33v-25.4z" fill="#fff"/><path d="M57.84 49.212c-.574.577-1.58.866-3.014.866h-4.88c-1.435 0-2.44-.289-3.014-.866-.574-.577-.861-1.299-.861-2.453v-4.763c0-1.154.287-1.876.86-2.453.575-.577 1.58-.866 3.015-.866h4.88c1.435 0 2.44.289 3.014.866.574.577.86 1.299.86 2.309v4.762c-.143 1.3-.286 2.165-.86 2.598zm-2.584-5.917c0-.577-.143-1.01-.43-1.299-.287-.288-.861-.433-1.723-.433h-1.865c-.861 0-1.292.145-1.58.433-.286.289-.43.722-.43 1.3v2.597c0 .577.144 1.01.43 1.299.288.288.862.433 1.58.433h1.865c.862 0 1.436-.145 1.723-.433.287-.289.43-.722.43-1.3v-2.597zM72.335 49.212c-.574.577-1.578.866-3.013.866h-4.88c-1.435 0-2.44-.289-3.014-.866-.574-.577-.861-1.299-.861-2.453v-4.763c0-1.154.287-1.876.86-2.453.575-.577 1.58-.866 3.015-.866h4.88c1.435 0 2.44.289 3.013.866.575.577.862 1.299.862 2.309v1.443h-3.301c0-.577-.144-1.01-.43-1.299-.288-.288-.862-.433-1.723-.433h-1.866c-.861 0-1.292.145-1.579.433-.287.289-.43.722-.43 1.3v2.597c0 .577.143 1.01.43 1.299.287.288.861.433 1.579.433h1.866c.86 0 1.435-.145 1.722-.433.287-.289.43-.722.43-1.3h3.302v1.155c0 .866-.287 1.732-.862 2.165zM78.364 50.078h-3.302V38.966h3.302v4.185h6.027v-4.185h3.301V50.078h-3.3v-4.33h-6.028v4.33zM93.864 45.748h-1.005c0 .578.144 1.01.43 1.3.288.288.862.432 1.58.432h7.176v2.598H93.29c-1.435 0-2.44-.289-3.014-.866-.574-.577-.861-1.299-.861-2.453v-4.763c0-1.01.287-1.876.86-2.453.575-.577 1.58-.866 3.015-.866H102.045v2.598h-7.177c-.86 0-1.291.144-1.578.433-.287.288-.43.721-.43 1.299h9.328v2.597h-8.324v.145zM127.735 41.419h-4.449v-2.453h12.487v2.453h-4.737v8.659h-3.301v-8.659zM120.272 40.986h-5.167v-2.02h-3.157v2.02h-5.31s-3.014.144-3.014 3.464c0 3.463 3.014 3.463 3.014 3.463h5.31v2.165h3.301v-2.165h5.023s3.014 0 3.014-3.463c0-3.32-3.014-3.464-3.014-3.464zm-1.722 4.618h-3.301v-2.309h3.301s1.148-.144 1.148 1.299c0 1.154-1.148 1.01-1.148 1.01zm-11.195-1.01c0-1.443 1.148-1.299 1.148-1.299h3.445v2.31h-3.301c-.144 0-1.292.144-1.292-1.011zM43.2 39.831c-.43-.577-1.435-.865-3.014-.865h-8.755v11.112h3.302v-3.897h5.453c1.436 0 2.44-.288 3.014-.865.575-.578.861-1.3.861-2.31v-.865c0-1.01-.286-1.877-.86-2.31zm-3.588 3.897h-4.88v-2.165h4.88c.574 0 1.148.433 1.148 1.155 0 .433-.43 1.01-1.148 1.01zM149.838 46.903v-.866c0-1.01-.287-1.876-.861-2.453-.574-.578-1.579-.866-3.014-.866h-5.311v-3.752h-3.301v11.112h8.755c1.435 0 2.44-.289 3.014-.866.574-.433.718-1.299.718-2.309zm-3.301-.433c0 .577-.431 1.155-1.148 1.155h-4.737v-2.31h4.88c.574 0 1.005.578 1.005 1.155zM152.852 66.242H0v1.154h152.852v-1.154z" fill="#fff"/><path fill-rule="evenodd" clip-rule="evenodd" d="M130.462 92.507h3.445v9.958h3.157v-9.958h3.875v-2.453h-11.481l1.004 2.453zm19.089 1.732h-4.019v-4.185h-3.157v12.411h7.176c2.296 0 4.449-1.01 4.449-4.04 0-3.32-2.153-4.186-4.449-4.186zm-.431 5.628h-3.731v-3.175h3.731c1.579 0 1.722.722 1.722 1.588.144 1.154 0 1.587-1.722 1.587zM49.085 94.672h-4.45v-2.165h7.033l.861-2.453H41.48v12.411h7.606c2.296 0 4.449-.722 4.449-3.897s-2.153-3.896-4.45-3.896zm-.43 5.195h-4.02v-2.886h4.02c1.578 0 1.721.433 1.721 1.443.144 1.155 0 1.443-1.722 1.443zm34.301 0h-4.019V89.91h-3.013v9.958h-4.02V89.91h-3.013v12.412h17.08V89.909h-3.015v9.958zm14.352-5.195h-5.884v-4.763h-3.158v12.412h3.158v-5.196h5.884v5.196h3.158V89.909h-3.157v4.763zm26.409-4.763h-.718V88.61h-2.87v1.3h-.718c-3.732 0-6.028 2.164-6.028 6.35 0 2.886 1.435 6.205 5.884 6.349h.862v1.299h2.87v-1.443h.861c4.449-.144 5.885-3.464 5.885-6.35 0-4.04-2.297-6.206-6.028-6.206zm-3.588 10.103h-.862c-1.435 0-3.014-.29-3.014-3.753 0-3.752 1.723-3.752 3.014-3.752h.718v7.505h.144zm3.731 0h-.861v-7.65h.718c1.435 0 3.014 0 3.014 3.753.143 3.464-1.436 3.752-2.871 3.897zm-11.912-7.505l.861-2.453h-10.19v12.411h9.903v-2.453h-6.746v-2.743h5.885v-2.453h-5.885v-2.309h6.172zM58.127 89.91l-4.162 12.412h3.3l1.005-3.175h5.167l1.005 3.175h3.3l-4.449-12.412h-5.166zm.86 6.928l1.436-4.474h.574l1.435 4.474h-3.444zM17.08 79.374C7.894 79.374.431 86.88.431 96.115s7.463 16.741 16.648 16.741c9.186 0 16.649-7.505 16.649-16.741s-7.463-16.74-16.649-16.74zm0 29.008V99.29L4.02 88.178c1.291-2.02 2.87-3.753 4.88-5.052l8.18 6.928v9.092l13.06-11.113c1.293 2.165 2.01 4.618 2.154 7.216l-15.214 13.133z" fill="#fff"/></symbol><symbol fill="none" viewBox="0 0 1900 579" id="form-decor" xmlns="http://www.w3.org/2000/svg"><g clip-path="url(#hclip0_51_513)"><path d="M1577.3 12.2l322.6 566V561L1587.2 12.2h-9.9z" fill="#D1D2D4"/><path d="M1899.9 386.1V561L1587.2 12.2h99.7l213 373.9z" fill="#D51C6C"/><path d="M1673.4 12.2l226.5 398.4V12.2h-226.5z" fill="#D1D2D4"/><path d="M1901 12.2v349.9L1702.1 12.2H1901z" fill="#0E9347"/><path d="M1760.2 0h140.5l.3 236.4-9-3.4L1760.2 0z" fill="#F2F3F4"/><path d="M1754.1 12.3l146.9 246v-23.8L1761 0H-19v12.3h1773.1z" fill="#D1D2D4"/></g><defs><clipPath id="hclip0_51_513"><path fill="#fff" transform="translate(-19)" d="M0 0h1920v578.2H0z"/></clipPath></defs></symbol><symbol fill="none" viewBox="0 0 519 409" id="form-logo" xmlns="http://www.w3.org/2000/svg"><g clip-path="url(#iclip0_2_61)" fill="#fff"><path opacity=".15" d="M16 301.1H0v-24.9h16v3.4H3.8v7.3h10.4v3.4H3.8v7.5H16v3.3zM24.4 301.1h-4.8L29.8 288l-9.3-11.8h4.6l8.9 11.9-9.6 13zm13.5 0H34v-24.9h3.8v24.9h.1zm14.3 0h-4.7l-9.6-13 8.8-11.9h4.6L42 288l10.2 13.1zM72.6 301.1h-16v-24.9h16v3.4H60.4v7.3h10.4v3.4H60.4v7.5h12.2v3.3zM93.4 279.6H81.9v21.5h-3.8v-24.9h15.3v3.4zM114.8 282.2c.3 1.3.4 3.5.4 6.4 0 2.9-.1 5.1-.4 6.4-.3 1.3-1 2.6-2.1 3.7-1.7 1.7-3.8 2.5-6.4 2.5-2.6 0-4.8-.8-6.4-2.5-1.1-1.1-1.8-2.4-2.1-3.7-.3-1.3-.4-3.5-.4-6.4 0-2.9.1-5.1.4-6.4.3-1.3 1-2.6 2.1-3.7 1.7-1.7 3.8-2.5 6.4-2.5 2.6 0 4.8.8 6.4 2.5 1.2 1.2 1.9 2.4 2.1 3.7zm-3.6 11.7c.2-1 .3-2.8.3-5.3s-.1-4.3-.3-5.3c-.2-1-.6-1.8-1.2-2.5-1-1-2.2-1.5-3.7-1.5s-2.7.5-3.7 1.5c-.6.7-1 1.5-1.2 2.5-.2 1-.3 2.8-.3 5.3s.1 4.2.3 5.2c.2 1 .6 1.8 1.2 2.5 1 1 2.2 1.6 3.7 1.6s2.7-.5 3.7-1.6c.6-.5 1-1.4 1.2-2.4zM124.2 276.2h14.3v21.5h2.9v9h-3.7v-5.6h-15.1v5.6H119v-9h2.2c2-3.1 3-7.9 3-14.2v-7.3zm3.6 3.4v5.6c0 5.3-.8 9.5-2.4 12.6h9.4v-18.2h-7zM164.2 301.1h-3.8v-10.9h-10.1v10.9h-3.8v-24.9h3.8v10.7h10.1v-10.7h3.8v24.9zM190.1 301.1h-4l-1.7-5h-9.8l-1.7 5h-4l9.1-24.9h3l9.1 24.9zm-6.7-8.2l-3.8-11.1-3.9 11.1h7.7zM203.2 291.3l-4.8 9.8h-4.5l5.4-10.5c-1.5-.5-2.7-1.4-3.5-2.6-.8-1.2-1.3-2.6-1.3-4.3 0-2.3.7-4.1 2.2-5.5 1.5-1.4 3.4-2.1 5.8-2.1h9.5V301h-3.8v-9.8h-5v.1zm4.9-3.4v-8.3h-5.4c-1.4 0-2.5.4-3.2 1.1-.8.7-1.2 1.8-1.2 3s.4 2.3 1.2 3.1c.8.8 1.9 1.1 3.2 1.1h5.4zM231.9 301.1h-3.8v-24.9h3.8v24.9zm14.8 0h-4.8l-10-13 9.3-11.9h4.7l-9.6 11.8 10.4 13.1zM266.3 282.2c.3 1.3.4 3.5.4 6.4 0 2.9-.1 5.1-.4 6.4-.3 1.3-1 2.6-2.1 3.7-1.7 1.7-3.8 2.5-6.4 2.5-2.6 0-4.8-.8-6.4-2.5-1.1-1.1-1.8-2.4-2.1-3.7-.3-1.3-.4-3.5-.4-6.4 0-2.9.1-5.1.4-6.4.3-1.3 1-2.6 2.1-3.7 1.7-1.7 3.8-2.5 6.4-2.5 2.6 0 4.8.8 6.4 2.5 1.1 1.2 1.8 2.4 2.1 3.7zm-3.7 11.7c.2-1 .3-2.8.3-5.3s-.1-4.3-.3-5.3c-.2-1-.6-1.8-1.2-2.5-1-1-2.2-1.5-3.7-1.5s-2.7.5-3.7 1.5c-.6.7-1 1.5-1.2 2.5-.2 1-.3 2.8-.3 5.3s.1 4.2.3 5.2c.2 1 .6 1.8 1.2 2.5 1 1 2.2 1.6 3.7 1.6s2.7-.5 3.7-1.6c.7-.5 1.1-1.4 1.2-2.4zM287.9 278.3c1.5 1.4 2.2 3.2 2.2 5.4s-.7 4-2.2 5.4c-1.5 1.4-3.4 2.1-5.8 2.1h-5.7v9.8h-3.8v-24.8h9.4c2.5 0 4.5.7 5.9 2.1zm-2.8 8.5c.8-.7 1.2-1.8 1.2-3.1s-.4-2.3-1.2-3.1c-.8-.8-1.9-1.1-3.2-1.1h-5.5v8.3h5.5c1.4.1 2.4-.2 3.2-1zM312.9 301.1h-3.8v-21.5H299v21.5h-3.8v-24.9h17.6v24.9h.1zM336.4 282.2c.3 1.3.4 3.5.4 6.4 0 2.9-.1 5.1-.4 6.4-.3 1.3-1 2.6-2.1 3.7-1.7 1.7-3.8 2.5-6.4 2.5-2.6 0-4.8-.8-6.4-2.5-1.1-1.1-1.8-2.4-2.1-3.7-.3-1.3-.4-3.5-.4-6.4 0-2.9.1-5.1.4-6.4.3-1.3 1-2.6 2.1-3.7 1.7-1.7 3.8-2.5 6.4-2.5 2.6 0 4.8.8 6.4 2.5 1.1 1.2 1.8 2.4 2.1 3.7zm-3.7 11.7c.2-1 .3-2.8.3-5.3s-.1-4.3-.3-5.3c-.2-1-.6-1.8-1.2-2.5-1-1-2.2-1.5-3.7-1.5s-2.7.5-3.7 1.5c-.6.7-1 1.5-1.2 2.5-.2 1-.3 2.8-.3 5.3s.1 4.2.3 5.2c.2 1 .6 1.8 1.2 2.5 1 1 2.2 1.6 3.7 1.6s2.7-.5 3.7-1.6c.7-.5 1.1-1.4 1.2-2.4zM358 278.3c1.5 1.4 2.2 3.2 2.2 5.4s-.7 4-2.2 5.4c-1.5 1.4-3.4 2.1-5.8 2.1h-5.7v9.8h-3.8v-24.8h9.4c2.5 0 4.5.7 5.9 2.1zm-2.8 8.5c.8-.7 1.2-1.8 1.2-3.1s-.4-2.3-1.2-3.1c-.8-.8-1.9-1.1-3.2-1.1h-5.5v8.3h5.5c1.4.1 2.4-.2 3.2-1zM382.3 301.1h-4l-1.7-5h-9.8l-1.7 5h-4l9.1-24.9h3l9.1 24.9zm-6.7-8.2l-3.8-11.1-3.9 11.1h7.7zM399.9 279.6H393v21.5h-3.8v-21.5h-6.9v-3.4h17.5v3.4h.1zM423.3 301.1h-3.8V283l-11.2 18.1h-3.4v-24.9h3.8v18.1l11.1-18.1h3.5v24.9zM447.6 294.1c0 2.1-.7 3.8-2 5.1-1.3 1.3-3.2 1.9-5.5 1.9H430v-24.9h9.7c2.3 0 4.1.6 5.5 1.8 1.4 1.2 2.1 2.9 2.1 4.9 0 2.5-1.1 4.3-3.4 5.4 2.5 1.2 3.7 3.1 3.7 5.8zm-5.2-8.3c.7-.6 1.1-1.5 1.1-2.6s-.4-2-1.1-2.6c-.7-.6-1.7-.9-3-.9h-5.6v7.1h5.6c1.3-.1 2.2-.4 3-1zm.3 10.9c.7-.7 1.1-1.6 1.1-2.8 0-1.2-.4-2.1-1.1-2.8-.7-.7-1.7-1-3-1h-5.9v7.6h5.9c1.3 0 2.3-.3 3-1zM471.1 301.1h-3.8v-10.9h-10.1v10.9h-3.8v-24.9h3.8v10.7h10.1v-10.7h3.8v24.9zM497 301.1h-4l-1.7-5h-9.8l-1.7 5h-4l9.1-24.9h3l9.1 24.9zm-6.7-8.2l-3.8-11.1-3.9 11.1h7.7zM510.1 291.3l-4.8 9.8h-4.5l5.4-10.5c-1.5-.5-2.7-1.4-3.5-2.6-.9-1.2-1.3-2.6-1.3-4.3 0-2.3.7-4.1 2.2-5.5 1.5-1.4 3.4-2.1 5.8-2.1h9.5V301H515v-9.8h-4.9v.1zm4.9-3.4v-8.3h-5.4c-1.4 0-2.5.4-3.2 1.1-.8.7-1.2 1.8-1.2 3s.4 2.3 1.2 3.1c.8.8 1.9 1.1 3.2 1.1h5.4zM17.7 352.3h-3.8v-10.9H3.8v10.9H0v-24.9h3.8V338h10.1v-10.6h3.8v24.9zM43.6 352.3h-4l-1.7-5H28l-1.7 5h-4l9.1-24.9h3l9.2 24.9zm-6.8-8.3L33 333l-3.9 11h7.7zM64.7 327.4l-8.9 20.8c-1.2 2.7-2.9 4.1-5.2 4.1H48v-3.4h1.8c1.4 0 2.3-.7 2.9-2l.9-2-8.1-17.5h4l5.9 13.3 5.4-13.3h3.9zM85.8 352.3H82v-9.8c-2.8.5-5 .8-6.7.8-1.8 0-3.4-.5-4.6-1.5-1.2-1-1.9-2.5-1.9-4.6v-9.8h3.8v8.9c0 2.4 1.3 3.6 3.8 3.6 1.5 0 3.4-.2 5.5-.7v-11.8h3.8v24.9h.1zM110.2 352.3h-3.8v-10.9H96.3v10.9h-3.8v-24.9h3.8V338h10.1v-10.6h3.8v24.9zM133.6 333.4c.3 1.3.4 3.5.4 6.4 0 3-.1 5.1-.4 6.4-.3 1.3-1 2.6-2.1 3.7-1.7 1.7-3.8 2.5-6.4 2.5-2.6 0-4.8-.8-6.4-2.5-1.1-1.1-1.8-2.4-2.1-3.7-.3-1.3-.4-3.5-.4-6.4 0-3 .1-5.1.4-6.4.3-1.3 1-2.6 2.1-3.7 1.7-1.7 3.8-2.5 6.4-2.5 2.6 0 4.8.8 6.4 2.5 1.2 1.1 1.9 2.3 2.1 3.7zm-3.6 11.7c.2-1 .3-2.8.3-5.3s-.1-4.3-.3-5.3c-.2-1-.6-1.8-1.2-2.5-1-1-2.2-1.5-3.7-1.5s-2.7.5-3.7 1.5c-.6.7-1 1.5-1.2 2.5-.2 1-.3 2.8-.3 5.3s.1 4.2.3 5.2c.2 1 .6 1.8 1.2 2.5 1 1 2.2 1.6 3.7 1.6s2.7-.5 3.7-1.6c.6-.6 1-1.4 1.2-2.4zM149.9 344.2h-10.2v-3.3h10.2v3.3zM169 330.7h-6.9v21.5h-3.8v-21.5h-6.9v-3.4H169v3.4zM189.9 352.3h-16v-24.9h16v3.4h-12.2v7.2h10.4v3.4h-10.4v7.5h12.2v3.4zM213.4 352.3H209l-5.4-9.5-5.4 9.5h-4.3l7.7-12.8-7.2-12.1h4.3l4.9 8.9 4.9-8.9h4.3l-7.2 12.1 7.8 12.8zM235.7 352.3h-3.8v-10.9h-10.1v10.9H218v-24.9h3.8V338h10.1v-10.6h3.8v24.9zM260.8 352.3H257v-18.1l-11.2 18.1h-3.4v-24.9h3.8v18.1l11.1-18.1h3.5v24.9zM283.5 352.3h-3.8v-9.8c-2.8.5-5 .8-6.7.8-1.8 0-3.4-.5-4.6-1.5-1.2-1-1.9-2.5-1.9-4.6v-9.8h3.8v8.9c0 2.4 1.3 3.6 3.8 3.6 1.5 0 3.4-.2 5.5-.7v-11.8h3.8v24.9h.1zM306.1 352.3h-16v-24.9h16v3.4h-12.2v7.2h10.4v3.4h-10.4v7.5h12.2v3.4zM328.3 344.8c-.4 2.4-1.4 4.3-3 5.6-1.6 1.3-3.6 2-5.9 2-2.6 0-4.8-.8-6.4-2.5-1.1-1.1-1.8-2.4-2.1-3.7-.3-1.3-.4-3.5-.4-6.4 0-2.9.1-5.1.4-6.4.3-1.3 1-2.6 2.1-3.7 1.7-1.7 3.8-2.5 6.4-2.5 2.3 0 4.3.7 5.9 2 1.6 1.3 2.6 3.2 3 5.6h-3.8c-.3-1.3-.9-2.4-1.7-3.1-.9-.8-2-1.2-3.3-1.2-1.5 0-2.7.5-3.7 1.5-.6.7-1 1.5-1.2 2.5-.2 1-.3 2.8-.3 5.3s.1 4.3.3 5.3c.2 1 .6 1.8 1.2 2.5 1 1 2.2 1.5 3.7 1.5 1.4 0 2.5-.4 3.3-1.2.9-.8 1.5-1.8 1.8-3.1h3.7zM337.5 352.3h-3.8v-24.9h3.8v24.9zm14.9 0h-4.8l-10-13 9.3-11.9h4.7l-9.6 11.8 10.4 13.1zM376.6 352.3h-4l-1.7-5H361l-1.7 5h-4l9.1-24.9h3l9.2 24.9zm-6.7-8.3l-3.9-11-3.9 11h7.8zM389.7 342.5l-4.8 9.8h-4.5l5.4-10.5c-1.5-.5-2.7-1.4-3.5-2.6-.8-1.2-1.3-2.6-1.3-4.3 0-2.3.7-4.1 2.2-5.5 1.5-1.4 3.4-2.1 5.8-2.1h9.5v24.9h-3.8v-9.8h-5v.1zm4.9-3.4v-8.4h-5.4c-1.4 0-2.5.4-3.2 1.1-.8.7-1.2 1.8-1.2 3 0 1.3.4 2.3 1.2 3.1.8.8 1.9 1.1 3.2 1.1h5.4v.1zM3.9 403.4H.1v-24.9h3.8v24.9zm14.8 0H14l-10-13 9.3-11.9H18l-9.6 11.8 10.3 13.1zM38.3 384.5c.3 1.3.4 3.5.4 6.4 0 2.9-.1 5.1-.4 6.4-.3 1.3-1 2.6-2.1 3.7-1.7 1.7-3.8 2.5-6.4 2.5-2.6 0-4.8-.8-6.4-2.5-1.1-1.1-1.8-2.4-2.1-3.7-.3-1.3-.4-3.5-.4-6.4 0-2.9.1-5.1.4-6.4.3-1.3 1-2.6 2.1-3.7 1.7-1.7 3.8-2.5 6.4-2.5 2.6 0 4.8.8 6.4 2.5 1.1 1.1 1.9 2.4 2.1 3.7zm-3.6 11.7c.2-1 .3-2.8.3-5.3s-.1-4.3-.3-5.3c-.2-1-.6-1.8-1.2-2.5-1-1-2.2-1.5-3.7-1.5s-2.7.5-3.7 1.5c-.6.7-1 1.5-1.2 2.5-.2 1-.3 2.8-.3 5.3s.1 4.2.3 5.2c.2 1 .6 1.8 1.2 2.5 1 1 2.2 1.6 3.7 1.6s2.7-.5 3.7-1.6c.6-.5 1-1.4 1.2-2.4zM62.4 403.4h-3.8v-10.9H48.5v10.9h-3.8v-24.9h3.8v10.7h10.1v-10.7h3.8v24.9zM81.8 403.6H78v-3.1c-3.6-.2-6.2-1.1-7.8-2.9-1.6-1.7-2.5-4.3-2.5-7.6 0-3.2.8-5.7 2.5-7.4 1.7-1.7 4.3-2.6 7.8-2.8v-2.4h3.8v2.4c3.5.2 6.1 1.1 7.8 2.8 1.7 1.7 2.5 4.1 2.5 7.4 0 3.3-.8 5.9-2.5 7.6-1.6 1.7-4.3 2.7-7.8 2.9v3.1zm-3.8-6.3v-14.2c-2.4.1-4.1.7-5.1 1.9-1 1.1-1.5 2.9-1.5 5.2 0 2.3.5 4 1.5 5.2 1 1.2 2.7 1.8 5.1 1.9zm3.8-14.2v14.2c2.4-.1 4-.7 5-1.9s1.5-2.9 1.5-5.2c0-2.3-.5-4.1-1.5-5.2-1-1.2-2.6-1.8-5-1.9zM113.3 403.4h-16v-24.9h16v3.4h-12.2v7.3h10.4v3.4h-10.4v7.5h12.2v3.3zM134 380.6c1.5 1.4 2.2 3.2 2.2 5.4s-.7 4-2.2 5.4c-1.5 1.4-3.4 2.1-5.8 2.1h-5.7v9.8h-3.8v-24.9h9.4c2.5.1 4.4.8 5.9 2.2zm-2.8 8.5c.8-.7 1.2-1.8 1.2-3.1s-.4-2.3-1.2-3.1c-.8-.7-1.9-1.1-3.2-1.1h-5.5v8.3h5.5c1.3.1 2.4-.3 3.2-1zM157.2 403.4h-16v-24.9h16v3.4H145v7.3h10.4v3.4H145v7.5h12.2v3.3zM180.3 403.4h-3.8v-10.9h-10.1v10.9h-3.8v-24.9h3.8v10.7h10.1v-10.7h3.8v24.9zM207.6 409h-3.7v-5.6H187v-24.9h3.8V400h10.1v-21.5h3.8V400h2.9v9zM231.1 403.4h-3.8v-18.1l-11.2 18.1h-3.4v-24.9h3.8v18.1l11.1-18.1h3.5v24.9zM245.6 393.6l-4.8 9.8h-4.5l5.4-10.5c-1.5-.5-2.7-1.4-3.5-2.6-.9-1.2-1.3-2.6-1.3-4.3 0-2.3.7-4.1 2.2-5.5 1.5-1.4 3.4-2.1 5.8-2.1h9.5v24.9h-3.8v-9.8h-5v.1zm4.9-3.4v-8.4h-5.4c-1.4 0-2.5.4-3.2 1.1-.8.7-1.2 1.8-1.2 3s.4 2.3 1.2 3.1c.8.8 1.9 1.1 3.2 1.1h5.4v.1z"/></g><g clip-path="url(#iclip1_2_61)" fill="#fff"><path opacity=".15" d="M25.6 240H0V0h25.6v240zM246.1 0l-78.9 240h-20.9L67.4 0h27l62.4 194.2L219.1 0h27z"/></g><defs><clipPath id="iclip0_2_61"><path fill="#fff" transform="translate(0 276)" d="M0 0h518.8v133H0z"/></clipPath><clipPath id="iclip1_2_61"><path fill="#fff" d="M0 0h246.1v240H0z"/></clipPath></defs></symbol><symbol fill="none" viewBox="0 0 241 482" id="gallery-decor" xmlns="http://www.w3.org/2000/svg"><g clip-path="url(#jclip0_37_347)"><path d="M0 0l274.2 481.1v-14.7L8.4 0H0z" fill="#D1D2D4"/><path d="M274.2 317.7v148.7L8.4 0h84.7l181.1 317.7z" fill="#D51C6C"/><path d="M81.7 0l192.5 338.6V0H81.7z" fill="#D1D2D4"/><path d="M275.1 0v297.4L106 0h169.1z" fill="#0E9347"/></g><defs><clipPath id="jclip0_37_347"><path fill="#fff" d="M0 0h275.1v481.1H0z"/></clipPath></defs></symbol><symbol fill="none" viewBox="0 0 148 158" id="grafic" xmlns="http://www.w3.org/2000/svg"><g clip-path="url(#kclip0_51_24)"><path d="M19.5 158c-4.6 0-8.3-3.7-8.3-8.3V68c0-1.1.9-2 2.1-2 1.1 0 2.1.9 2.1 2v81.7c0 2.3 1.9 4.2 4.2 4.2 2.3 0 4.2-1.9 4.2-4.2V103c0-1.1.9-2.1 2.1-2.1 1.1 0 2.1.9 2.1 2.1v46.7c-.2 4.6-4 8.3-8.5 8.3z" fill="#333739"/><path d="M2.1 99C.9 99 0 98.1 0 96.9V59.3c0-2.8 2-5.7 4.6-6.7l4.8-1.8c2.6-1 6-.1 7.8 2l10 12c.7.9.6 2.2-.3 2.9-.9.7-2.2.6-2.9-.3l-10-12c-.7-.8-2.2-1.2-3.2-.8L6 56.4c-1 .4-1.9 1.7-1.9 2.8v37.6c0 1.3-.9 2.2-2 2.2zM25.7 52c-6.6 0-11.8-7.6-11.8-17.4 0-6.5 5.3-11.8 11.8-11.8 6.5 0 11.8 5.3 11.8 11.8 0 9.6-5.3 17.4-11.8 17.4zm0-25.1c-4.2 0-7.7 3.5-7.7 7.7 0 7.2 3.5 13.3 7.7 13.3 4.1 0 7.7-6.2 7.7-13.3 0-4.2-3.5-7.7-7.7-7.7z" fill="#333739"/><path d="M7.6 104.6c-4.2 0-7.6-3.4-7.6-7.6 0-1.1.9-2 2.1-2 1.1 0 2.1.9 2.1 2 0 1.9 1.6 3.5 3.5 3.5s3.5-1.6 3.5-3.5c0-1.1.9-2 2.1-2 1.1 0 2.1.9 2.1 2-.1 4.1-3.6 7.6-7.8 7.6zM31.9 158c-4.6 0-8.3-3.7-8.3-8.3V103c0-1.1.9-2.1 2.1-2.1 1.1 0 2.1.9 2.1 2.1v46.7c0 2.3 1.9 4.2 4.2 4.2 2.3 0 4.2-1.9 4.2-4.2V68c0-1.1.9-2 2.1-2 1.1 0 2.1.9 2.1 2v81.7c-.2 4.6-3.9 8.3-8.5 8.3z" fill="#333739"/><path d="M49.3 99c-1.1 0-2.1-.9-2.1-2.1V59.3c0-1.1-.9-2.4-1.9-2.8l-4.8-1.8c-1-.4-2.5 0-3.2.8-.7.9-2 1-2.9.3-.9-.7-1-2-.3-2.9 1.8-2.1 5.2-3 7.8-2l4.8 1.8c2.6 1 4.6 3.9 4.6 6.7V97c.1 1.1-.8 2-2 2z" fill="#333739"/><path d="M43.8 104.6c-4.2 0-7.6-3.4-7.6-7.6 0-1.1.9-2 2.1-2 1.1 0 2.1.9 2.1 2 0 1.9 1.6 3.5 3.5 3.5s3.5-1.6 3.5-3.5c0-1.1.9-2 2.1-2 1.2 0 2.1.9 2.1 2-.2 4.1-3.6 7.6-7.8 7.6zM130.4 149c4.1 0 7.5-3.4 7.5-7.5V67.7c0-1-.8-1.9-1.9-1.9-1 0-1.9.8-1.9 1.9v73.8c0 2.1-1.7 3.8-3.8 3.8-2.1 0-3.8-1.7-3.8-3.8V99.3c0-1-.8-1.9-1.9-1.9-1 0-1.9.8-1.9 1.9v42.1c.3 4.2 3.6 7.6 7.7 7.6z" fill="#333739"/><path d="M146.2 95.7c1 0 1.9-.8 1.9-1.9v-34c0-2.5-1.8-5.1-4.2-6l-4.4-1.7c-2.4-.9-5.5-.1-7.1 1.9l-9.1 10.8c-.7.8-.6 2 .2 2.6.8.7 2 .6 2.6-.2l9.1-10.8c.6-.7 2-1.1 2.9-.8l4.4 1.7c.9.3 1.8 1.6 1.8 2.5v34c0 1.1.8 1.9 1.9 1.9zM114.1 37.6c0-5.9 4.8-10.7 10.7-10.7 5.9 0 10.7 4.8 10.7 10.7 0 8.8-4.7 15.7-10.7 15.7-5.9 0-10.7-7.1-10.7-15.7zm3.8 0c0 6.4 3.3 12 7 12 3.8 0 7-5.5 7-12 0-3.8-3.1-7-7-7s-7 3.1-7 7z" fill="#333739"/><path d="M141.1 100.7c3.8 0 6.9-3.1 6.9-6.9 0-1-.8-1.9-1.9-1.9-1 0-1.9.8-1.9 1.9 0 1.8-1.4 3.2-3.2 3.2-1.7 0-3.2-1.4-3.2-3.2 0-1-.8-1.9-1.9-1.9-1 0-1.9.8-1.9 1.9.2 3.8 3.3 6.9 7.1 6.9zM119.2 149c4.1 0 7.5-3.4 7.5-7.5V99.3c0-1-.8-1.9-1.9-1.9-1 0-1.9.8-1.9 1.9v42.1c0 2.1-1.7 3.8-3.8 3.8-2.1 0-3.8-1.7-3.8-3.8V67.7c0-1-.8-1.9-1.9-1.9-1 0-1.9.8-1.9 1.9v73.8c.2 4.1 3.5 7.5 7.7 7.5z" fill="#333739"/><path d="M103.5 95.7c1 0 1.9-.8 1.9-1.9v-34c0-1 .9-2.2 1.8-2.5l4.4-1.7c.9-.3 2.3 0 2.9.8.7.8 1.8.9 2.6.2s.9-1.8.2-2.6c-1.6-1.9-4.7-2.7-7.1-1.9l-4.4 1.7c-2.4.9-4.2 3.5-4.2 6v34c0 1.1.8 1.9 1.9 1.9z" fill="#333739"/><path d="M108.5 100.7c3.8 0 6.9-3.1 6.9-6.9 0-1-.8-1.9-1.9-1.9-1 0-1.9.8-1.9 1.9 0 1.8-1.4 3.2-3.2 3.2-1.7 0-3.2-1.4-3.2-3.2 0-1-.8-1.9-1.9-1.9-1 0-1.9.8-1.9 1.9.2 3.8 3.3 6.9 7.1 6.9z" fill="#333739"/><path d="M87.6 61.4c-.5 0-1.1-.2-1.5-.6l-4.5-4.6c-.8-.8-.8-2.1 0-2.9.8-.8 2.1-.8 2.9 0l4.5 4.6c.8.8.8 2.1 0 2.9-.4.4-.9.6-1.4.6z" fill="#D61F74"/><path d="M83.1 65.9c-.5 0-1-.2-1.4-.6-.8-.8-.8-2.1 0-2.9l4.5-4.6c.8-.8 2.1-.8 2.9 0 .8.8.8 2.1 0 2.9l-4.5 4.6c-.5.4-1 .6-1.5.6zM65.1 61.4c-.5 0-1-.2-1.4-.6-.8-.8-.8-2.1 0-2.9l4.5-4.6c.8-.8 2.1-.8 2.9 0 .8.8.8 2.1 0 2.9l-4.5 4.6c-.5.4-1 .6-1.5.6z" fill="#D61F74"/><path d="M69.6 65.9c-.5 0-1.1-.2-1.5-.6l-4.5-4.6c-.8-.8-.8-2.1 0-2.9.8-.8 2.1-.8 2.9 0l4.5 4.6c.8.8.8 2.1 0 2.9-.4.4-.9.6-1.4.6zM79 61.4h-5.3c-1.1 0-2.1-.9-2.1-2.1 0-1.1.9-2.1 2.1-2.1H79c1.1 0 2.1.9 2.1 2.1-.1 1.2-1 2.1-2.1 2.1zM76.3 0C63.4 0 52.9 10.5 52.9 23.5s10.5 23.4 23.5 23.4 23.5-10.5 23.5-23.4C99.9 10.6 89.2 0 76.3 0zm18.9 23.5c0 10.4-8.5 18.8-18.8 18.8s-18.8-8.4-18.8-18.8S65.9 4.6 76.3 4.6c10.4 0 18.9 8.5 18.9 18.9z" fill="#D61F74"/><path d="M78.6 22.5V9.4c0-1.3-1-2.3-2.3-2.3-1.3 0-2.3 1-2.3 2.3v14.1c0 .6.2 1.2.7 1.6l9.7 9.7c.4.4 1 .7 1.6.7.6 0 1.2-.2 1.6-.6l.2-.1v-.1c.7-.9.7-2.2-.2-3.1l-9-9.1z" fill="#D61F74"/></g><defs><clipPath id="kclip0_51_24"><path fill="#fff" d="M0 0h148v158H0z"/></clipPath></defs></symbol><symbol fill="none" viewBox="0 0 133 138" id="hands" xmlns="http://www.w3.org/2000/svg"><g clip-path="url(#lclip0_51_103)"><path d="M67.6 21.5c-.6 0-1.5-.4-1.9-.8-.4-.4-.8-1.3-.8-1.9 0-.6.4-1.5.8-1.9.4-.4 1.3-.8 1.9-.8.6 0 1.5.4 1.9.8.4.4.8 1.3.8 1.8 0 .6-.4 1.5-.8 1.9-.5.6-1.4.9-1.9.9zM73 16.1c-.5 0-1.5-.4-1.9-.8-1-1-1-2.7 0-3.7.4-.4 1.3-.8 1.9-.8.7 0 1.4.3 1.9.8 1 1.1 1 2.7 0 3.7-.4.4-1.4.8-1.9.8zM78.4 10.7c-.6 0-1.5-.4-1.9-.8-1-1-1-2.7 0-3.7.4-.4 1.3-.8 1.9-.8.7 0 1.3.3 1.8.7 1.1 1.1 1.1 2.7 0 3.8-.3.4-1.2.8-1.8.8zM83.8 5.3c-.6 0-1.5-.4-1.9-.8-.4-.4-.8-1.3-.8-1.9 0-.5.4-1.4.8-1.8.4-.4 1.4-.8 1.9-.8.7 0 1.4.3 1.9.8.4.4.8 1.3.8 1.9 0 .7-.3 1.4-.8 1.9-.4.3-1.3.7-1.9.7zM73 27c-.6 0-1.5-.4-1.9-.8-.4-.4-.8-1.3-.8-1.9 0-.6.4-1.5.8-1.9.4-.4 1.3-.8 1.9-.8.7 0 1.4.3 1.9.8 1 1.1 1 2.7 0 3.7-.4.5-1.4.9-1.9.9zM78.4 21.5c-.6 0-1.5-.4-1.9-.8-.4-.4-.8-1.3-.8-1.9 0-.6.4-1.5.8-1.9.4-.4 1.3-.8 1.9-.8.6 0 1.5.4 1.9.8 1 1 1 2.7 0 3.7-.4.6-1.3.9-1.9.9zM83.8 16.1c-.6 0-1.5-.4-1.9-.8-1-1-1-2.7 0-3.7.4-.4 1.3-.8 1.9-.8.7 0 1.3.3 1.8.7.4.4.8 1.3.8 1.9 0 .7-.3 1.4-.8 1.9-.3.5-1.2.8-1.8.8zM89.2 10.7c-.6 0-1.5-.4-1.9-.8-1-1-1-2.7 0-3.7.4-.4 1.3-.8 1.9-.8.7 0 1.3.3 1.8.7 1.1 1.1 1.1 2.7 0 3.8-.3.4-1.2.8-1.8.8zM78.4 32.4c-.6 0-1.5-.4-1.9-.8-1-1-1-2.7 0-3.7.4-.4 1.3-.8 1.9-.8.7 0 1.4.3 1.9.8 1 1.1 1 2.7 0 3.7-.4.4-1.3.8-1.9.8zM83.8 27c-.6 0-1.5-.4-1.9-.8-1-1.1-1-2.7 0-3.7.4-.4 1.3-.8 1.9-.8.7 0 1.4.3 1.9.8 1 1.1 1 2.7 0 3.7-.4.4-1.3.8-1.9.8zM89.2 21.5c-.5 0-1.4-.4-1.8-.7-1.1-1.1-1-2.8 0-3.8.4-.4 1.3-.8 1.9-.8.7 0 1.4.3 1.9.8.4.4.8 1.3.8 1.9 0 .5-.4 1.5-.8 1.9-.5.4-1.4.7-2 .7zM83.8 37.8c-.6 0-1.5-.4-1.9-.8-.4-.4-.8-1.3-.8-1.9 0-.6.4-1.5.8-1.9.4-.4 1.3-.8 1.9-.8.7 0 1.4.3 1.9.8.4.4.8 1.3.8 1.8 0 .6-.4 1.5-.8 1.9-.4.5-1.3.9-1.9.9zM89.2 32.4c-.6 0-1.5-.4-1.9-.8-1-1-1-2.7 0-3.7.4-.4 1.3-.8 1.9-.8.7 0 1.4.3 1.9.8 1 1 1 2.7 0 3.7-.4.4-1.3.8-1.9.8z" fill="#D61F74"/><path d="M39 37H24.7c-1.2 0-2.1-.9-2.1-2.1v-2.7c0-2.4-1.5-4.4-3.8-5.1-.1 0-.2-.1-.3-.1-3.2-1.1-5.3-4-5.3-7.3 0-4.3 3.5-7.7 7.8-7.7h37.8c1.2 0 2.1.9 2.1 2.1v9.8c0 1.2-.9 2.1-2.1 2.1H47.3c-3.4 0-6.2 2.8-6.2 6.3V35c0 1-.9 2-2.1 2zm-12.2-4.2h10.1v-.6c0-5.8 4.7-10.4 10.4-10.4h9.4v-5.6H21c-2 0-3.6 1.6-3.6 3.6 0 1.6 1 2.9 2.5 3.4.1 0 .2.1.3.1 3.9 1.3 6.6 4.9 6.6 9v.5z" fill="#333739"/><path d="M52.3 25.9c-1.2 0-2.1-.9-2.1-2.1V14c0-1.2.9-2.1 2.1-2.1 1.2 0 2.1.9 2.1 2.1v9.8c0 1.2-.9 2.1-2.1 2.1zM40.7 45.6H23c-1.2 0-2.1-.9-2.1-2.1v-8.7c0-1.2.9-2.1 2.1-2.1h17.7c1.2 0 2.1.9 2.1 2.1v8.7c0 1.2-.9 2.1-2.1 2.1zm-15.6-4.2h13.5V37H25.1v4.4z" fill="#333739"/><path d="M57.4 137.9H8.8c-.8 0-1.5-.4-1.8-1.1-.4-.5-7-13.1-7-32.5C0 82.6 11.3 61.2 18.8 47c.8-1.6 1.6-3 2.3-4.4.4-.7 1.1-1.1 1.9-1.1h17.7c2.4 0 4.4 2 4.4 4.4 0 2-1.4 3.8-3.3 4.2h-.1c-.9 3.5-3.5 13.1-4.2 15.4-.8 2.7-.4 5.1 3.8 8.2.5.4 1.3.9 2.2 1.5C50.2 79.4 64 88.1 64 110.7c0 16.1-4.6 25.7-4.8 26.1-.3.6-1 1.1-1.8 1.1zm-47.3-4.2H56c1.2-2.9 3.9-11.1 3.9-23 0-20.2-12.1-27.8-18.6-31.9-1-.6-1.8-1.2-2.5-1.6-5-3.8-6.7-7.8-5.3-12.7.6-2.3 3.2-11.9 4.2-15.4.7-2.5 2.5-2.9 3.2-3 0 0 .1-.1.1-.2s-.1-.2-.2-.2H24.3c-.5 1.1-1.1 2.2-1.8 3.3-7.3 13.8-18.3 34.6-18.3 55.3 0 15.2 4.3 26 5.9 29.4zM60.4 57.5c-.3 0-.7-.1-1-.3C49.2 51.7 44 40 46.7 28.7c.3-1.1 1.4-1.8 2.5-1.6 1.1.3 1.8 1.4 1.5 2.5-2.3 9.4 2.1 19.2 10.6 23.9 1 .6 1.4 1.8.8 2.8-.3.8-1 1.2-1.7 1.2z" fill="#333739"/><path d="M36.1 119.2H27c-1.2 0-2.1-.9-2.1-2.1v-5.5h-5.5c-1.2 0-2.1-.9-2.1-2.1v-9.1c0-1.2.9-2.1 2.1-2.1h5.5v-5.5c0-1.2.9-2.1 2.1-2.1h9.1c1.2 0 2.1.9 2.1 2.1v5.5h5.5c1.2 0 2.1.9 2.1 2.1v9.1c0 1.2-.9 2.1-2.1 2.1h-5.5v5.5c0 1.2-1 2.1-2.1 2.1zm-7-4.2H34v-5.5c0-1.2.9-2.1 2.1-2.1h5.5v-4.9h-5.5c-1.2 0-2.1-.9-2.1-2.1v-5.5h-4.9v5.5c0 1.2-.9 2.1-2.1 2.1h-5.5v4.9H27c1.2 0 2.1.9 2.1 2.1v5.5z" fill="#D61F74"/><path d="M112.4 135.6s-4.1-9.8-5.5-13.3c-1.4-3.5-1.8-3.5-2.5-3.7-.9-.2-2.4-.5-4.4-1.9-2.2-1.5-4.9-3.5-6.9-5.2-2.4-1.9-3.2-4.1-4.7-7.7l-.4-1.1c-1.3-3.1-2.6-6.4-6.1-9.8-2.9-2.8-1.6-5.3-1.2-5.9 1.5-2.2 5.1-2.9 8.1-1.5 5 2.2 7.4 6.7 9.2 10.1l.2.4c.5 1 .2 2.3-.9 2.8-1 .5-2.3.2-2.8-.9l-.2-.4c-1.6-2.9-3.5-6.6-7.1-8.2-1.3-.5-2.5-.3-2.9-.1.1.1.2.4.5.7 4.1 4.1 5.7 7.9 7 11.3l.4 1.1c1.3 3.3 1.9 4.8 3.4 6 2 1.6 4.6 3.5 6.7 5 1.3.9 2.1 1.1 2.9 1.2 2.5.5 3.6 1.5 5.6 6.2 1.4 3.5 5.5 13.3 5.5 13.3l-3.9 1.6zM97.4 86.2l-9.1-23.8c-1.3-3.3-.1-6.5 2.9-7.7 3-1.2 6 .2 7.5 3.5l10.1 23.4c.5 1.1 0 2.3-1.1 2.8s-2.3 0-2.8-1.1L94.8 59.8c-.2-.5-.9-1.7-2-1.3-1.1.4-.8 1.6-.5 2.3l9.1 23.8-4 1.6z" fill="#333739"/><path d="M96.3 99c-.8 0-1.5-.4-1.9-1.1 0-.1-1-1.9-2.8-5.7-.3-.6-.8-2-1.4-3.9l-.2-.6c-1.1-3.1-2.1-6.4-3.1-9.6-1-3.2-2.1-6.5-3.2-9.7-1.9-5.7 1.5-7.6 2.6-8 2.8-1.2 5.7.3 7 3.4.4 1.1-.1 2.3-1.1 2.7-1.1.4-2.3-.1-2.7-1.1-.3-.7-.8-1.5-1.6-1.1-.9.3-.6 1.7-.2 2.8 1.1 3.2 2.2 6.5 3.2 9.8 1 3.2 2.1 6.5 3.1 9.5l.2.6c.3 1 1 3 1.2 3.4 1.8 3.7 2.7 5.5 2.7 5.5.5 1 .2 2.3-.9 2.8-.2.2-.6.3-.9.3zM112.8 82.7s-5.9-12.3-10.4-21.5c-.5-1.1-1.1-1.5-1.7-1.2-.9.4-.7 1.4-.4 2 .4 1.1-.1 2.3-1.2 2.7-1.1.4-2.3-.1-2.7-1.2-1.3-3.1-.1-6.3 2.7-7.4 2.8-1.1 5.6.2 7.1 3.3 4.4 9.2 10.4 21.5 10.4 21.5l-3.8 1.8z" fill="#333739"/><path d="M130.9 119.1c-.8 0-1.6-.5-1.9-1.3 0 0-.5-1.3-2.3-5.7-.9-2.2-.6-4.3-.2-6.5.5-3.1 1.1-6.6-1.3-12.5l-.9-2.2c-.5-1.2-1-2.4-1.3-3.2-1.4-3.3-3.5-7.6-4.3-9-1.2-2-2.3-4.1-3.5-6.1l-3-5.1c-.4-.8-1.3-1.4-1.7-1.2-.3.1-.6.4-.2 1.5.4 1.1-.1 2.3-1.1 2.7-1.1.4-2.3-.1-2.7-1.1-1.2-2.8-.4-5.4 2-6.8 2.5-1.4 5.6-.3 7.4 2.7 1 1.7 2 3.4 2.9 5.1 1.2 2 2.4 4.1 3.6 6.1.8 1.5 3.1 5.9 4.5 9.5.3.7.8 2 1.3 3.2l.9 2.2c2.9 7 2.1 11.5 1.6 14.8-.3 1.9-.5 3.1-.1 4.2 1.7 4.3 2.3 5.6 2.3 5.6.4 1.1-.1 2.3-1.1 2.7-.4.3-.6.4-.9.4z" fill="#333739"/><path d="M82.4 103.7h-6.9c-1.2 0-2.1-.9-2.1-2.1v-52c0-1.2.9-2.1 2.1-2.1H126c1.2 0 2.1.9 2.1 2.1v26.7c0 1.2-.9 2.1-2.1 2.1-1.2 0-2.1-.9-2.1-2.1V51.6H77.6v47.9h4.8c1.2 0 2.1.9 2.1 2.1 0 1.1-.9 2.1-2.1 2.1z" fill="#333739"/><path d="M67.6 21.5c-.6 0-1.5-.4-1.9-.8-.4-.4-.8-1.3-.8-1.9 0-.6.4-1.5.8-1.9.4-.4 1.3-.8 1.9-.8.6 0 1.5.4 1.9.8.4.4.8 1.3.8 1.8 0 .6-.4 1.5-.8 1.9-.5.6-1.4.9-1.9.9zM73 16.1c-.5 0-1.5-.4-1.9-.8-1-1-1-2.7 0-3.7.4-.4 1.3-.8 1.9-.8.7 0 1.4.3 1.9.8 1 1.1 1 2.7 0 3.7-.4.4-1.4.8-1.9.8zM78.4 10.7c-.6 0-1.5-.4-1.9-.8-1-1-1-2.7 0-3.7.4-.4 1.3-.8 1.9-.8.7 0 1.3.3 1.8.7 1.1 1.1 1.1 2.7 0 3.8-.3.4-1.2.8-1.8.8zM83.8 5.3c-.6 0-1.5-.4-1.9-.8-.4-.4-.8-1.3-.8-1.9 0-.5.4-1.4.8-1.8.4-.4 1.4-.8 1.9-.8.7 0 1.4.3 1.9.8.4.4.8 1.3.8 1.9 0 .7-.3 1.4-.8 1.9-.4.3-1.3.7-1.9.7zM73 27c-.6 0-1.5-.4-1.9-.8-.4-.4-.8-1.3-.8-1.9 0-.6.4-1.5.8-1.9.4-.4 1.3-.8 1.9-.8.7 0 1.4.3 1.9.8 1 1.1 1 2.7 0 3.7-.4.5-1.4.9-1.9.9zM78.4 21.5c-.6 0-1.5-.4-1.9-.8-.4-.4-.8-1.3-.8-1.9 0-.6.4-1.5.8-1.9.4-.4 1.3-.8 1.9-.8.6 0 1.5.4 1.9.8 1 1 1 2.7 0 3.7-.4.6-1.3.9-1.9.9zM83.8 16.1c-.6 0-1.5-.4-1.9-.8-1-1-1-2.7 0-3.7.4-.4 1.3-.8 1.9-.8.7 0 1.3.3 1.8.7.4.4.8 1.3.8 1.9 0 .7-.3 1.4-.8 1.9-.3.5-1.2.8-1.8.8zM89.2 10.7c-.6 0-1.5-.4-1.9-.8-1-1-1-2.7 0-3.7.4-.4 1.3-.8 1.9-.8.7 0 1.3.3 1.8.7 1.1 1.1 1.1 2.7 0 3.8-.3.4-1.2.8-1.8.8zM78.4 32.4c-.6 0-1.5-.4-1.9-.8-1-1-1-2.7 0-3.7.4-.4 1.3-.8 1.9-.8.7 0 1.4.3 1.9.8 1 1.1 1 2.7 0 3.7-.4.4-1.3.8-1.9.8zM83.8 27c-.6 0-1.5-.4-1.9-.8-1-1.1-1-2.7 0-3.7.4-.4 1.3-.8 1.9-.8.7 0 1.4.3 1.9.8 1 1.1 1 2.7 0 3.7-.4.4-1.3.8-1.9.8zM89.2 21.5c-.5 0-1.4-.4-1.8-.7-1.1-1.1-1-2.8 0-3.8.4-.4 1.3-.8 1.9-.8.7 0 1.4.3 1.9.8.4.4.8 1.3.8 1.9 0 .5-.4 1.5-.8 1.9-.5.4-1.4.7-2 .7zM83.8 37.8c-.6 0-1.5-.4-1.9-.8-.4-.4-.8-1.3-.8-1.9 0-.6.4-1.5.8-1.9.4-.4 1.3-.8 1.9-.8.7 0 1.4.3 1.9.8.4.4.8 1.3.8 1.8 0 .6-.4 1.5-.8 1.9-.4.5-1.3.9-1.9.9zM89.2 32.4c-.6 0-1.5-.4-1.9-.8-1-1-1-2.7 0-3.7.4-.4 1.3-.8 1.9-.8.7 0 1.4.3 1.9.8 1 1 1 2.7 0 3.7-.4.4-1.3.8-1.9.8z" fill="#D61F74"/></g><defs><clipPath id="lclip0_51_103"><path fill="#fff" d="M0 0h133v137.9H0z"/></clipPath></defs></symbol><symbol fill="none" viewBox="0 0 26 37" id="location" xmlns="http://www.w3.org/2000/svg"><g clip-path="url(#mclip0_2_333)" fill="#149446"><path d="M12.7 37l-1.3-1.4C3.8 27.7 0 20 0 12.7 0 5.7 5.7 0 12.7 0c7 0 12.7 5.7 12.7 12.7 0 7.3-3.8 15-11.4 23L12.7 37zm0-33.4c-5 0-9 4.1-9 9 0 5.9 3 12.3 9 19 6-6.7 9-13.1 9-19 0-4.9-4-9-9-9z"/><path d="M12.7 16.3a3.6 3.6 0 100-7.2 3.6 3.6 0 000 7.2z"/></g><defs><clipPath id="mclip0_2_333"><path fill="#fff" d="M0 0h25.3v37H0z"/></clipPath></defs></symbol><symbol fill="none" viewBox="0 0 222 44" id="logo" xmlns="http://www.w3.org/2000/svg"><g clip-path="url(#nclip0_1_3)" fill="#fff"><path d="M58.6 9h-5.2V.9h5.2V2h-4v2.4H58v1.1h-3.4v2.4h4V9zM61.4 9h-1.5l3.3-4.3-3-3.8h1.5l2.9 3.9L61.4 9zm4.3 0h-1.2V.9h1.2V9zm4.7 0h-1.5l-3.1-4.2L68.7.9h1.5l-3 3.8L70.4 9zM77 9h-5.2V.9H77V2h-4v2.4h3.4v1.1H73v2.4h4V9zM83.8 2H80v7h-1.2V.9h5V2zM90.7 2.8c.1.4.1 1.1.1 2.1s0 1.7-.1 2.1c-.1.4-.3.8-.7 1.2-.5.6-1.2.8-2.1.8-.8 0-1.5-.3-2.1-.8-.4-.4-.6-.8-.7-1.2 0-.4-.1-1.1-.1-2.1s0-1.7.1-2.1c.1-.4.3-.8.7-1.2.5-.5 1.2-.8 2.1-.8.8 0 1.5.3 2.1.8.4.4.6.8.7 1.2zm-1.2 3.8c.1-.3.1-.9.1-1.7 0-.8 0-1.4-.1-1.7-.1-.3-.2-.6-.4-.8-.3-.3-.7-.5-1.2-.5s-.9.2-1.2.5c-.2.2-.3.5-.4.8-.1.3-.1.9-.1 1.7 0 .8 0 1.4.1 1.7.1.3.2.6.4.8.3.3.7.5 1.2.5s.9-.2 1.2-.5c.2-.2.4-.4.4-.8zM93.8.9h4.7v7h1v2.9h-1.2V9h-4.9v1.8h-1.2V7.9h.7c.7-1 1-2.6 1-4.6V.9h-.1zM94.9 2v1.8c0 1.7-.3 3.1-.8 4.1h3V2h-2.2zM106.7 9h-1.2V5.4h-3.3V9H101V.9h1.2v3.5h3.3V.9h1.2V9zM115.2 9h-1.3l-.6-1.6h-3.2l-.6 1.6h-1.3l3-8.1h1l3 8.1zM113 6.3l-1.2-3.6-1.3 3.6h2.5zM119.4 5.8L117.8 9h-1.5l1.8-3.4c-.5-.2-.9-.4-1.1-.8-.3-.4-.4-.9-.4-1.4 0-.7.2-1.3.7-1.8.5-.4 1.1-.7 1.9-.7h3.1V9H121V5.8h-1.6zm1.6-1.1V2h-1.8c-.4 0-.8.1-1.1.4-.3.2-.4.6-.4 1s.1.7.4 1c.3.2.6.4 1 .4h1.9v-.1zM128.7 9h-1.2V.9h1.2V9zm4.8 0H132l-3.3-4.2 3-3.9h1.5l-3.1 3.8 3.4 4.3zM139.9 2.8c.1.5.1 1.2.1 2.1 0 .9 0 1.7-.1 2.1-.1.4-.3.8-.7 1.2-.5.6-1.2.8-2.1.8-.8 0-1.5-.3-2.1-.8-.4-.4-.6-.8-.7-1.2-.1-.4-.1-1.1-.1-2.1s0-1.7.1-2.1c.1-.4.3-.8.7-1.2.5-.5 1.2-.8 2.1-.8.8 0 1.5.3 2.1.8.4.4.6.8.7 1.2zm-1.2 3.8c.1-.3.1-.9.1-1.7 0-.8 0-1.4-.1-1.7-.1-.3-.2-.6-.4-.8-.3-.3-.7-.5-1.2-.5s-.9.2-1.2.5c-.2.2-.3.5-.4.8-.1.3-.1.9-.1 1.7 0 .8 0 1.4.1 1.7.1.3.2.6.4.8.3.3.7.5 1.2.5s.9-.2 1.2-.5c.2-.2.4-.4.4-.8zM146.9 1.6c.5.5.7 1 .7 1.8 0 .7-.2 1.3-.7 1.8-.5.5-1.1.7-1.9.7h-1.8V9H142V.9h3.1c.7 0 1.4.2 1.8.7zm-.9 2.7c.3-.2.4-.6.4-1s-.1-.8-.4-1c-.3-.2-.6-.3-1-.3h-1.8v2.7h1.8c.4 0 .8-.1 1-.4zM155 9h-1.2V2h-3.3v7h-1.2V.9h5.7V9zM162.7 2.8c.1.4.1 1.1.1 2.1s0 1.7-.1 2.1c-.1.4-.3.8-.7 1.2-.5.5-1.2.8-2.1.8-.8 0-1.5-.3-2.1-.8-.4-.4-.6-.8-.7-1.2-.1-.4-.1-1.1-.1-2.1s0-1.7.1-2.1c.1-.4.3-.8.7-1.2.5-.5 1.2-.8 2.1-.8.8 0 1.5.3 2.1.8.4.4.6.8.7 1.2zm-1.2 3.8c.1-.3.1-.9.1-1.7 0-.8 0-1.4-.1-1.7-.1-.3-.2-.6-.4-.8-.3-.3-.7-.5-1.2-.5s-.9.2-1.2.5c-.2.2-.3.5-.4.8-.1.3-.1.9-.1 1.7 0 .8 0 1.4.1 1.7.1.3.2.6.4.8.3.3.7.5 1.2.5s.9-.2 1.2-.5c.2-.2.3-.4.4-.8zM169.7 1.6c.5.5.7 1 .7 1.8 0 .7-.2 1.3-.7 1.8-.5.5-1.1.7-1.9.7H166V9h-1.2V.9h3.1c.7 0 1.3.2 1.8.7zm-.9 2.7c.3-.2.4-.6.4-1s-.1-.8-.4-1c-.3-.2-.6-.4-1-.4H166v2.7h1.8c.4.1.7 0 1-.3zM177.6 9h-1.3l-.6-1.6h-3.2L172 9h-1.3l3-8.1h1l2.9 8.1zm-2.2-2.7l-1.2-3.6-1.3 3.6h2.5zM183.3 2h-2.2v7h-1.2V2h-2.2V.9h5.7V2h-.1zM190.9 9h-1.2V3.1L186 9h-1.1V.9h1.2v5.9l3.6-5.9h1.1V9h.1zM198.8 6.7c0 .7-.2 1.2-.7 1.7-.4.4-1 .6-1.8.6H193V.9h3.1c.7 0 1.3.2 1.8.6.4.4.7.9.7 1.6 0 .8-.4 1.4-1.1 1.8.9.3 1.3.9 1.3 1.8zM197.1 4c.2-.2.4-.5.4-.9s-.1-.6-.4-.9c-.2-.2-.6-.3-1-.3h-1.8v2.3h1.8c.4.1.8 0 1-.2zm.1 3.5c.2-.2.4-.5.4-.9s-.1-.7-.4-.9c-.2-.2-.6-.3-1-.3h-1.9v2.5h1.9c.4 0 .8-.2 1-.4zM206.4 9h-1.2V5.4h-3.3V9h-1.2V.9h1.2v3.5h3.3V.9h1.2V9zM214.8 9h-1.3l-.5-1.7h-3.2l-.6 1.7h-1.3l3-8.1h1l2.9 8.1zm-2.1-2.7l-1.2-3.6-1.3 3.6h2.5zM219.1 5.8L217.5 9H216l1.8-3.4c-.5-.2-.9-.4-1.1-.8-.3-.4-.4-.9-.4-1.4 0-.7.2-1.3.7-1.8.5-.4 1.1-.7 1.9-.7h3.1V9h-1.2V5.8h-1.7zm1.6-1.1V2h-1.8c-.4 0-.8.1-1.1.4-.3.2-.4.6-.4 1s.1.7.4 1c.3.2.6.4 1 .4h1.9v-.1zM53.6 25.6h-1.2V22h-3.3v3.5h-1.2v-8.1h1.2v3.5h3.3v-3.5h1.2v8.2zM62 25.6h-1.3l-.6-1.6H57l-.6 1.6h-1.3l3-8.1h1l2.9 8.1zm-2.2-2.7l-1.2-3.6-1.3 3.6h2.5zM68.9 17.5L66 24.3c-.4.9-.9 1.3-1.7 1.3h-.8v-1.1h.5c.4 0 .8-.2.9-.6l.3-.7-2.6-5.7h1.3l1.9 4.3 1.7-4.3h1.4zM75.7 25.6h-1.2v-3.2c-.9.2-1.6.3-2.2.3-.6 0-1.1-.2-1.5-.5-.4-.3-.6-.8-.6-1.5v-3.2h1.2v2.9c0 .8.4 1.2 1.2 1.2.5 0 1.1-.1 1.8-.2v-3.9h1.2v8.1h.1zM83.7 25.6h-1.2V22h-3.3v3.5H78v-8.1h1.2v3.5h3.3v-3.5h1.2v8.2zM91.3 19.4c.1.4.1 1.1.1 2.1s0 1.7-.1 2.1c-.1.4-.3.8-.7 1.2-.5.5-1.2.8-2.1.8-.8 0-1.5-.3-2.1-.8-.4-.4-.6-.8-.7-1.2-.1-.4-.1-1.1-.1-2.1s0-1.7.1-2.1c.1-.4.3-.8.7-1.2.5-.5 1.2-.8 2.1-.8.8 0 1.5.3 2.1.8.4.4.6.8.7 1.2zm-1.2 3.8c.1-.3.1-.9.1-1.7 0-.8 0-1.4-.1-1.7-.1-.3-.2-.6-.4-.8-.3-.3-.7-.5-1.2-.5s-.9.2-1.2.5c-.2.2-.3.5-.4.8-.1.3-.1.9-.1 1.7 0 .8 0 1.4.1 1.7.1.3.2.6.4.8.3.3.7.5 1.2.5s.9-.2 1.2-.5c.2-.2.3-.4.4-.8zM96.6 23h-3.3v-1.1h3.3V23zM102.8 18.6h-2.2v7h-1.2v-7h-2.2v-1.1h5.7v1.1h-.1zM109.6 25.6h-5.2v-8.1h5.2v1.1h-4V21h3.4v1h-3.4v2.4h4v1.2zM117.2 25.6h-1.4l-1.8-3.1-1.8 3.1h-1.4l2.5-4.1-2.3-3.9h1.4l1.6 2.9 1.6-2.9h1.4l-2.3 3.9 2.5 4.1zM124.4 25.6h-1.2V22h-3.3v3.5h-1.2v-8.1h1.2v3.5h3.3v-3.5h1.2v8.2zM132.6 25.6h-1.2v-5.9l-3.6 5.9h-1.1v-8.1h1.2v5.9l3.6-5.9h1.1v8.1zM139.9 25.6h-1.2v-3.2c-.9.2-1.6.3-2.2.3-.6 0-1.1-.2-1.5-.5-.4-.3-.6-.8-.6-1.5v-3.2h1.2v2.9c0 .8.4 1.2 1.2 1.2.5 0 1.1-.1 1.8-.2v-3.9h1.2v8.1h.1zM147.3 25.6h-5.2v-8.1h5.2v1.1h-4V21h3.4v1h-3.4v2.4h4v1.2zM154.5 23.2c-.1.8-.5 1.4-1 1.8-.5.4-1.2.7-1.9.7-.8 0-1.5-.3-2.1-.8-.4-.4-.6-.8-.7-1.2-.1-.4-.1-1.1-.1-2.1s0-1.6.1-2.1c.1-.4.3-.8.7-1.2.5-.5 1.2-.8 2.1-.8.8 0 1.4.2 1.9.7.5.4.8 1 1 1.8h-1.2c-.1-.4-.3-.8-.6-1-.3-.2-.6-.4-1.1-.4-.5 0-.9.2-1.2.5-.2.2-.3.5-.4.8-.1.3-.1.9-.1 1.7 0 .8 0 1.4.1 1.7.1.3.2.6.4.8.3.3.7.5 1.2.5.4 0 .8-.1 1.1-.4.3-.2.5-.6.6-1h1.2zM157.5 25.6h-1.2v-8.1h1.2v8.1zm4.8 0h-1.6l-3.3-4.2 3-3.9h1.5l-3.1 3.8 3.5 4.3zM170.2 25.6h-1.3l-.6-1.6h-3.2l-.6 1.6h-1.3l3-8.1h1l3 8.1zm-2.2-2.7l-1.2-3.6-1.3 3.6h2.5zM174.4 22.4l-1.6 3.2h-1.5l1.8-3.4c-.5-.2-.9-.4-1.1-.8-.3-.4-.4-.9-.4-1.4 0-.7.2-1.3.7-1.8.5-.4 1.1-.7 1.9-.7h3.1v8.1H176v-3.2h-1.6zm1.6-1.1v-2.7h-1.8c-.4 0-.8.1-1.1.4-.3.2-.4.6-.4 1s.1.7.4 1c.3.2.6.4 1 .4h1.9v-.1zM43.6 42.2h-1.2v-8.1h1.2v8.1zm4.8 0h-1.6L43.5 38l3-3.9H48l-3 3.8 3.4 4.3zM54.8 36c.1.4.1 1.1.1 2.1s0 1.7-.1 2.1c-.1.4-.3.8-.7 1.2-.5.5-1.2.8-2.1.8-.8 0-1.5-.3-2.1-.8-.4-.4-.6-.8-.7-1.2-.1-.4-.1-1.1-.1-2.1s0-1.7.1-2.1c.1-.4.3-.8.7-1.2.5-.5 1.2-.8 2.1-.8.8 0 1.5.3 2.1.8.4.4.6.8.7 1.2zm-1.2 3.9c.1-.3.1-.9.1-1.7 0-.8 0-1.4-.1-1.7-.1-.3-.2-.6-.4-.8-.3-.3-.7-.5-1.2-.5s-.9.2-1.2.5c-.2.2-.3.5-.4.8-.1.3-.1.9-.1 1.7 0 .8 0 1.4.1 1.7.1.3.2.6.4.8.3.3.7.5 1.2.5s.9-.2 1.2-.5c.2-.3.3-.5.4-.8zM62.6 42.2h-1.2v-3.5h-3.3v3.5h-1.2v-8.1h1.2v3.5h3.3v-3.5h1.2v8.1zM68.9 42.2h-1.2v-1c-1.2-.1-2-.4-2.5-.9-.5-.6-.8-1.4-.8-2.5s.3-1.9.8-2.4 1.4-.8 2.5-.9v-.8h1.2v.8c1.1.1 2 .4 2.5.9s.8 1.3.8 2.4c0 1.1-.3 1.9-.8 2.5-.5.6-1.4.9-2.5.9v1zm-1.2-2v-4.6c-.8 0-1.3.2-1.6.6-.3.4-.5.9-.5 1.7 0 .7.2 1.3.5 1.7.2.4.8.6 1.6.6zm1.2-4.6v4.6c.8 0 1.3-.2 1.6-.6.3-.4.5-.9.5-1.7 0-.8-.2-1.3-.5-1.7-.3-.4-.8-.6-1.6-.6zM79.1 42.2H74v-8.1h5.2v1.1h-4v2.4h3.4v1.1h-3.4v2.4h4v1.1h-.1zM85.8 34.8c.5.5.7 1 .7 1.8 0 .7-.2 1.3-.7 1.8-.4.4-1.1.6-1.8.6h-1.8v3.2H81v-8.1h3c.7 0 1.4.2 1.8.7zm-.9 2.7c.3-.2.4-.6.4-1s-.1-.8-.4-1c-.3-.2-.6-.4-1-.4h-1.8v2.7h1.8c.4.1.8 0 1-.3zM93.4 42.2h-5.2v-8.1h5.2v1.1h-4v2.4h3.4v1.1h-3.4v2.4h4v1.1zM100.9 42.2h-1.2v-3.5h-3.3v3.5h-1.2v-8.1h1.2v3.5h3.3v-3.5h1.2v8.1zM109.8 44h-1.2v-1.8h-5.5v-8.1h1.2v7h3.3v-7h1.2v7h1V44zM117.4 42.2h-1.2v-5.9l-3.6 5.9h-1.1v-8.1h1.2V40l3.6-5.9h1.1v8.1zM122.1 39l-1.6 3.2H119l1.8-3.4c-.5-.2-.9-.4-1.1-.8-.2-.4-.4-.9-.4-1.4 0-.7.2-1.3.7-1.8.5-.4 1.1-.7 1.9-.7h3.1v8.1h-1.2V39h-1.7zm1.6-1.1v-2.7h-1.8c-.4 0-.8.1-1.1.4-.3.2-.4.6-.4 1s.1.7.4 1c.3.2.6.4 1 .4h1.9v-.1zM4.6 43.6H0V0h4.6v43.6zM44.7 0L30.3 43.6h-3.8L12.2 0h4.9l11.3 35.2L39.8 0h4.9z"/></g><defs><clipPath id="nclip0_1_3"><path fill="#fff" d="M0 0h221.9v44H0z"/></clipPath></defs></symbol><symbol fill="none" viewBox="0 0 135 136" id="maska" xmlns="http://www.w3.org/2000/svg"><g clip-path="url(#oclip0_51_72)"><path d="M24.7 133.7c-1.1 0-2.1-.9-2.1-2.1v-12.3c0-1.1.9-2.1 2.1-2.1 1.2 0 2.1.9 2.1 2.1v12.3c0 1.2-1 2.1-2.1 2.1zM109.3 133.7c-1.1 0-2.1-.9-2.1-2.1v-12.3c0-1.1.9-2.1 2.1-2.1 1.2 0 2.1.9 2.1 2.1v12.3c0 1.2-1 2.1-2.1 2.1zM60.9 130.7h-.1c-1.1-.1-2-1.1-1.9-2.2.9-13.4 1.6-19.2 1.9-21.7.1-.7.2-1.3.2-1.5v-.3c-.1-.2-1-1-1.3-1.3-.8-.8-.9-2.1-.1-2.9.8-.8 2.1-.9 2.9-.1 1.8 1.7 2.6 2.5 2.6 4.6 0 .4-.1 1-.2 2-.3 2.4-1 8.2-1.9 21.4-.2 1.1-1.1 2-2.1 2zM73.3 130.7c-1.1 0-2-.8-2.1-1.9-.9-13.3-1.6-19-1.9-21.4-.1-1.1-.2-1.6-.2-2 0-2.1.8-2.9 2.6-4.6.8-.8 2.1-.7 2.9.1.8.8.7 2.1-.1 2.9-.3.3-1.2 1.1-1.3 1.4v.3c0 .2.1.8.2 1.5.3 2.5 1 8.3 1.9 21.7.1 1.1-.8 2.1-1.9 2.2l-.1-.2zM48.5 80.5s.1 2.3 2 4.2c3.8 4.1 11.1 4.1 11.1 4.1s-4.3 1.4-4.9 4.7c-.7 4.2-2.9 6.1-2.9 6.1s-1.1-1.7-5.8-5.5c-3.9-3.2-2-6.8-2-6.8l2.5-6.8zm0-4.1c-1.7 0-3.3 1.1-3.9 2.7l-2.4 6.6c-1.1 2.5-1.7 7.6 3.2 11.6 3.5 2.8 4.7 4.3 5 4.6.6 1 1.6 1.7 2.8 1.9h.6c1 0 2-.4 2.8-1.1.5-.5 3.3-3.1 4.2-8.5.1-.4 1.2-1.2 2.1-1.5 1.9-.6 3.1-2.5 2.8-4.6-.3-2-2.1-3.5-4.1-3.5-1.5 0-6-.5-8.1-2.8-.7-.7-.8-1.6-.8-1.6-.1-2-1.6-3.6-3.5-3.9-.3.1-.5.1-.7.1zM85.6 80.5l2.4 6.8s1.9 3.7-2 6.8c-4.6 3.8-5.8 5.5-5.8 5.5s-2.2-1.9-2.9-6.1c-.6-3.4-4.9-4.7-4.9-4.7s7.3 0 11.1-4.1c2-1.9 2.1-4.2 2.1-4.2zm-.1-4.3c-.2 0-.5 0-.7.1-2 .4-3.4 1.9-3.4 3.9 0 .2-.2 1-.8 1.6-2.1 2.2-6.6 2.8-8.1 2.8-2 0-3.8 1.5-4.1 3.5-.3 2 .9 4 2.8 4.6.9.3 2 1.1 2 1.5.9 5.4 3.9 8.2 4.2 8.5.8.7 1.7 1.1 2.8 1.1h.6c1.2-.2 2.2-.8 2.8-1.9.2-.3 1.5-1.8 4.9-4.6 4.9-4 4.3-9.2 3.2-11.6l-2.4-6.6c-.4-1.7-2-2.9-3.8-2.9zM89.9 60.8c-.5 0-1.1-.2-1.5-.6-.8-.8-.8-2.1 0-2.9.9-.9 1.9-1.6 3-1.9.8-1.4 1.9-7.2 1.9-11.4 0-2.2-.5-3.6-.9-4.3 0 0-.1.1-.1.2-1.5 3.1-2.3 4.7-4.3 4.2-1.9-.5-1.9-2.4-1.9-4.9v-5.6c-2.6 1.3-6.7 2.6-12.6 2.6-6.3 0-10.1-1.8-13.2-3.3-2.4-1.1-4.3-2-6.8-2-4.9 0-5.7 1.7-5.7 6.8 0 4.3 0 5.7-1.9 6.2-1.9.4-2.5-.9-4.2-4.2 0-.1-.1-.1-.1-.2-.4.7-.8 2.1-.8 4.3 0 4.2 1.1 10 1.9 11.4 1 .3 2 1 3 1.9.8.8.8 2.1 0 2.9-.8.8-2.1.8-2.9 0-.5-.5-1.1-.9-1.5-1-4.4-1.1-4.6-15.1-4.6-15.3 0-4.6 1.7-8.1 4.2-8.7.6-.1 1.7-.2 2.8.6.2-3.8 1.6-8.9 9.8-8.9 3.5 0 6.1 1.2 8.6 2.4 3 1.4 6.1 2.9 11.5 2.9 9.4 0 13.1-3.7 13.2-3.7.6-.6 1.5-.8 2.3-.5.8.3 1.3 1.1 1.3 1.9v6.1c1.2-1 2.4-.9 3-.7 2.5.6 4.2 4.1 4.2 8.7 0 .1-.2 14.2-4.6 15.3-.5.1-1 .5-1.5 1s-1.1.7-1.6.7z" fill="#333739"/><path d="M88.5 44.2c-2.4 0-2.4-2.5-2.4-4.9v-5.6c-2.6 1.3-6.7 2.6-12.6 2.6-6.3 0-10.1-1.8-13.2-3.3-2.4-1.1-4.3-2-6.8-2-4.9 0-5.7 1.7-5.7 6.8V41c-.1 2.5-1.4 3-2.3 3-1.6 0-2.1-1-3.7-4.2-.1-.2-.2-.3-.2-.4-.4.2-.9.2-1.4 0-.6-.2-1.1-.7-1.3-1.4-.9-3-1.3-6.6-1.3-11.1C37.5 12.1 50.8 0 67.1 0 73.5 0 78 1.6 80.3 4.8c.8-.2 1.5-.3 2.3-.3 9.5 0 14 13.3 14 22.3 0 4.6-.4 8.1-1.3 11.1-.2.7-.7 1.2-1.3 1.4-.5.2-1 .1-1.4 0-.1.1-.1.2-.2.4-1.5 3.1-2.2 4.5-3.9 4.5zm-.3-16.4c.3 0 .5 0 .8.2.8.3 1.3 1.1 1.3 1.9V36c.5-.4 1.1-.6 1.5-.7.5-2.3.7-5 .7-8.3 0-7.4-3.5-18.2-9.8-18.2-.8 0-1.6.2-2.5.5-1 .4-2.1-.1-2.6-1.1-1.2-2.7-4.7-4-10.5-4-14 0-25.4 10.2-25.4 22.7 0 3.3.2 6 .7 8.3.4.1.9.3 1.4.6.2-3.8 1.6-8.9 9.8-8.9 3.5 0 6.1 1.2 8.6 2.4 3 1.4 6.1 2.9 11.5 2.9 9.3 0 13.2-3.7 13.2-3.7.2-.5.7-.7 1.3-.7zM67.1 136c-40.9 0-65.2-6-65.5-6-1.1-.3-1.8-1.4-1.5-2.5L4 110.7c3.1-13.2 14-16.8 26.7-21 2-.7 4.1-1.4 6.2-2.1 1.1-.4 2.3.2 2.6 1.3.4 1.1-.2 2.3-1.3 2.6-2.2.8-4.3 1.5-6.3 2.1-12.4 4.1-21.4 7.1-24 18l-3.4 14.8c6.5 1.4 28.8 5.5 62.5 5.5 33.8 0 56-4.1 62.5-5.5l-3.4-14.8c-2.5-10.9-11.5-13.9-24-18l-6.3-2.1c-1.1-.4-1.6-1.6-1.3-2.6.4-1.1 1.6-1.6 2.6-1.3 2.1.8 4.2 1.4 6.3 2.1 12.7 4.2 23.6 7.8 26.7 21l3.9 16.8c.3 1.1-.4 2.2-1.5 2.5-.2 0-24.6 6-65.4 6z" fill="#333739"/><path d="M67.1 83.3c-6.5 0-17-3.8-19.6-14.2-.8-3.1-.9-11.4-.9-12.5 0-2.1.2-5.1 2.3-6.5 2.1-1.4 4.6-.5 6.9.4 1.2.5 2.6 1 3.3.9 1.4-.3 2.3-1.1 3.3-1.9 1.2-1.1 2.7-2.2 4.8-2.2 1.1 0 2.1.9 2.1 2.1 0 1.1-.9 2.1-2.1 2.1-.6 0-1.2.4-2.2 1.3-1.2 1-2.7 2.3-5.1 2.8-1.9.4-3.9-.4-5.7-1-.9-.3-2.6-1-3-.8 0 0-.5.5-.5 3.1 0 2 .2 9.2.8 11.5 2 8.1 10.5 11 15.6 11 1.1 0 2.1.9 2.1 2.1-.1.9-1 1.8-2.1 1.8z" fill="#D61F74"/><path d="M67.1 83.3c-1.1 0-2.1-.9-2.1-2.1 0-1.1.9-2.1 2.1-2.1 5.2 0 13.6-2.9 15.6-11 .6-2.3.8-9.6.8-11.5 0-2.6-.5-3.1-.5-3.1-.4-.2-2.1.5-3 .8-1.8.7-3.8 1.5-5.7 1-2.4-.5-3.9-1.8-5.1-2.8-1-.8-1.5-1.3-2.2-1.3-1.1 0-2.1-.9-2.1-2.1 0-1.1.9-2.1 2.1-2.1 2.2 0 3.6 1.2 4.8 2.2 1 .8 1.9 1.6 3.3 1.9.7.2 2.1-.4 3.3-.9 2.2-.9 4.7-1.8 6.8-.4 2.1 1.4 2.3 4.4 2.3 6.5 0 1.1-.2 9.5-.9 12.5-2.5 10.7-13.1 14.5-19.5 14.5z" fill="#D61F74"/><path d="M67.1 75.2c-3.3 0-6.7-.4-9.9-1.3-1.1-.3-1.8-1.4-1.5-2.5.3-1.1 1.4-1.8 2.5-1.5 5.8 1.5 11.9 1.5 17.8 0 1.1-.3 2.2.4 2.5 1.5.3 1.1-.4 2.2-1.5 2.5-3.3.9-6.6 1.3-9.9 1.3zM67.1 69.1c-4.6 0-9.2-.8-13.7-2.3-1.1-.4-1.7-1.5-1.3-2.6.4-1.1 1.5-1.7 2.6-1.3 8.1 2.7 16.6 2.8 24.7 0 1.1-.4 2.3.2 2.6 1.3.4 1.1-.2 2.3-1.3 2.6-4.5 1.5-9 2.3-13.6 2.3z" fill="#D61F74"/><path d="M67.1 62.9c-4.6 0-9.2-.8-13.7-2.3-1.1-.4-1.7-1.5-1.3-2.6.4-1.1 1.5-1.7 2.6-1.3 8 2.8 16.6 2.8 24.7 0 1.1-.4 2.3.2 2.6 1.3.4 1.1-.2 2.3-1.3 2.6-4.4 1.6-9 2.3-13.6 2.3z" fill="#D61F74"/></g><defs><clipPath id="oclip0_51_72"><path fill="#fff" d="M0 0h134.1v136H0z"/></clipPath></defs></symbol><symbol fill="none" viewBox="0 0 25 18" id="online" xmlns="http://www.w3.org/2000/svg"><path d="M16.7 9c0 2.4-2 4.4-4.4 4.4-2.4 0-4.4-2-4.4-4.4 0-2.4 2-4.4 4.4-4.4 2.4 0 4.4 1.9 4.4 4.4zM7.4 2.8c-.2-.2-.4-.3-.7-.3-.2 0-.5.1-.6.3C4.5 4.4 3.5 6.6 3.5 9c0 2.4.9 4.6 2.6 6.2.2.2.4.3.6.3.2 0 .5-.1.6-.3.2-.2.3-.4.3-.6 0-.2-.1-.5-.3-.6-1.3-1.4-2-3.2-2-5 0-1.8.7-3.7 2.1-5 .2-.2.3-.4.3-.6-.1-.3-.2-.5-.3-.6zM18.6 2.8c-.2-.2-.4-.3-.6-.3-.2 0-.5.1-.6.3-.2.2-.3.4-.3.6 0 .2.1.5.3.6 1.3 1.3 2.1 3.1 2.1 5s-.7 3.7-2.1 5c-.2.2-.3.4-.3.6 0 .2.1.5.3.6.2.2.4.3.6.3.2 0 .5-.1.6-.3 1.7-1.7 2.6-3.9 2.6-6.2 0-2.3-1-4.6-2.6-6.2z" fill="#fff"/><path d="M1.8 9c0-1.4.3-2.8.8-4 .5-1.2 1.3-2.4 2.3-3.4.2-.3.3-.6.2-.9C5 .4 4.8.1 4.5 0c-.3-.1-.7 0-.9.3C2.1 1.8 1 3.7.4 5.8c-.6 2.1-.6 4.3 0 6.4.6 2.1 1.7 4 3.2 5.5.2.2.4.3.6.3.2 0 .5-.1.6-.3.2-.2.3-.4.3-.6 0-.2-.1-.5-.3-.6-1-1-1.8-2.1-2.3-3.4-.5-1.3-.7-2.7-.7-4.1zM21.1.3c-.3-.3-.6-.4-.9-.3-.3.1-.5.3-.6.6-.1.3 0 .6.2.9 1.3 1.3 2.3 3 2.7 4.7.5 1.8.5 3.7 0 5.5-.5 1.8-1.4 3.4-2.7 4.7-.2.2-.3.4-.3.6 0 .2.1.5.3.6.2.2.4.3.6.3.2 0 .5-.1.6-.3 1.5-1.5 2.6-3.4 3.2-5.5.6-2.1.6-4.3 0-6.4-.5-2-1.6-3.9-3.1-5.4z" fill="#fff"/></symbol><symbol fill="none" viewBox="0 0 28 27" id="phone" xmlns="http://www.w3.org/2000/svg"><g clip-path="url(#qclip0_37_310)"><path d="M14.47 22.61l4.374-4.121L26 23.298l-1.59 1.57c-1.093.982-2.684 1.374-4.075.982-4.473-1.276-8.449-3.632-11.927-6.969-3.578-3.337-5.964-7.165-7.256-11.385-.397-1.374 0-2.846.994-3.926L3.736 2l4.97 6.87-4.373 4.122" stroke="#149446" stroke-width="2" stroke-linecap="round"/></g><defs><clipPath id="qclip0_37_310"><path fill="#fff" d="M0 0h27.9v27H0z"/></clipPath></defs></symbol><symbol fill="currentColor" class="rbi rbi-phone" viewBox="0 0 16 16" id="phone1" xmlns="http://www.w3.org/2000/svg"><path d="M11 1a1 1 0 011 1v12a1 1 0 01-1 1H5a1 1 0 01-1-1V2a1 1 0 011-1h6zM5 0a2 2 0 00-2 2v12a2 2 0 002 2h6a2 2 0 002-2V2a2 2 0 00-2-2H5z"/><path d="M8 14a1 1 0 100-2 1 1 0 000 2z"/></symbol><symbol fill="none" viewBox="0 0 119 40" id="rosneft" xmlns="http://www.w3.org/2000/svg"><path fill-rule="evenodd" clip-rule="evenodd" d="M8.359 22.455h3.505V40H8.36V22.455zm8.269 0h3.505V40h-3.505V22.455zm-4.135-3.546h3.505V40h-3.505V18.91zM24.986 11.91h3.506v8.454l-3.416 3.454V11.91h-.09zM0 11.91h3.505v11.908L0 20.364v-8.455zm4.134-4.183H7.64v20.364l-3.506-3.546V7.727zm7.64 14H8.36V3.545h3.505v18.182h-.09zM12.494 0h3.505v18.273h-3.506V0zm7.639 21.727h-3.505V3.545h3.505v18.182zm.719-14h3.415v16.819l-3.505 3.545V7.727h.09z" fill="#C7CACB"/><path d="M45.928 39.364c-.45.454-1.258.636-2.426.636h-3.865c-1.169 0-1.978-.182-2.427-.636-.45-.455-.72-1.091-.72-1.91v-3.818c0-.909.27-1.454.72-1.909.45-.454 1.258-.636 2.427-.636H43.5c1.169 0 1.978.182 2.427.636.45.455.63 1.091.63 1.91v3.818c0 .818-.27 1.454-.63 1.909zm-2.067-4.819c0-.454-.09-.818-.27-1.09-.18-.182-.629-.364-1.348-.364h-1.438c-.629 0-1.078.09-1.258.364-.18.272-.36.636-.36 1v2c0 .454.09.818.36 1.09.18.273.629.364 1.258.364h1.438c.72 0 1.169-.09 1.348-.364.18-.181.27-.545.27-1.09v-1.91zM57.433 39.364c-.45.454-1.258.636-2.427.636h-3.865c-1.168 0-1.977-.182-2.426-.636-.45-.455-.72-1.091-.72-1.91v-3.818c0-.909.18-1.454.72-1.909.449-.454 1.258-.636 2.426-.636h3.865c1.169 0 1.977.182 2.427.636.45.455.629 1.091.629 1.91v.908h-2.606c0-.454-.09-.818-.27-1.09-.18-.182-.63-.364-1.348-.364H52.4c-.63 0-1.079.09-1.259.364-.18.272-.36.636-.36 1v2c0 .454.09.818.36 1.09.18.273.63.364 1.259.364h1.438c.719 0 1.168-.09 1.348-.364.18-.272.27-.636.27-1.09h2.606v.909c0 .909-.18 1.545-.63 2zM62.286 40H59.68l-.09-2.545v-3.819l.09-2.545h2.606v3.454h4.674v-3.454h2.696V40H66.96v-3.455h-4.674V40zM74.6 36.545h-.72c0 .455.09.819.36 1.091.18.273.63.364 1.259.364h5.752v2H74.33c-1.168 0-1.977-.182-2.427-.636-.45-.455-.629-1.091-.629-1.91v-3.818c0-.818.27-1.454.63-1.909.449-.454 1.258-.636 2.426-.636h6.921v2h-5.752c-.63 0-1.08.09-1.259.364-.18.272-.36.545-.36 1h7.37v2H74.6v.09zM101.474 33.09h-3.596v-2h9.977v2h-3.775V40h-2.606v-6.91zM95.542 32.727h-4.045v-1.636h-2.606v1.636h-4.135s-2.337.091-2.337 2.818c0 2.728 2.427 2.728 2.427 2.728h4.134V40h2.607v-1.727h4.044s2.427 0 2.427-2.728c-.18-2.727-2.516-2.818-2.516-2.818zm-1.439 3.728h-2.696v-1.91h2.697s.898-.09.898 1c0 1-.898.91-.898.91zm-8.808-.91c0-1.09.9-1 .9-1h2.696v1.91h-2.697s-.899.09-.899-.91zM34.334 31.727c-.45-.454-1.259-.636-2.427-.636h-6.92V40h2.606v-3.091h4.314c1.168 0 1.977-.182 2.427-.636.45-.455.629-1.091.629-1.91v-.727c0-.818-.18-1.454-.63-1.909zm-2.876 3.182h-3.865v-1.818h3.865c.45 0 .898.364.898.909s-.359.909-.898.909zM119 37.455v-.728c0-.818-.18-1.454-.629-1.909-.45-.454-1.258-.636-2.427-.636h-4.314V31.09h-2.607V40h6.921c1.169 0 1.977-.182 2.427-.636.449-.455.629-1.091.629-1.91zm-2.606-.364c0 .454-.36.909-.899.909h-3.865v-1.818h3.865c.539 0 .899.454.899.909z" fill="#C7CACB"/></symbol><symbol fill="none" viewBox="0 0 33 29" id="schedule-icon" xmlns="http://www.w3.org/2000/svg"><path fill-rule="evenodd" clip-rule="evenodd" d="M15.2 29V18.5L0 5.8C1.4 3.4 3.3 1.5 5.6 0l9.5 8v10.5L30.3 5.8c1.5 2.5 2.4 5.3 2.5 8.4L15.2 29z" fill="#EDEDED"/></symbol><symbol fill="none" viewBox="0 0 89 139" id="temperature" xmlns="http://www.w3.org/2000/svg"><g clip-path="url(#uclip0_51_52)"><path d="M55.8 105.1l1.6 12.9c.2 1.2 1.2 2.2 2.5 2.2s2.3-.9 2.5-2.2c.6-4.7 1.3-10.6 1.6-12.9.1-.7-.1-1.4-.6-2-.5-.5-1.2-.8-1.9-.8h-3.2c-.7 0-1.4.3-1.9.8-.5.6-.7 1.3-.6 2zm4.1 5.6l.6-5h-1.2l.6 5z" fill="#D61F74"/><path d="M57.4 104.9c0-.2 0-.5.2-.6.2-.2.4-.3.6-.3h3.2c.2 0 .5.1.6.3.2.2.2.4.2.6-.3 2.2-1 8.2-1.6 12.9-.1.4-.4.7-.8.7s-.8-.3-.8-.7c-.5-4.7-1.3-10.6-1.6-12.9zM59.9 121.9c-1.6 0-2.9 1.3-2.9 2.9 0 1.6 1.3 2.9 2.9 2.9 1.6 0 2.9-1.3 2.9-2.9 0-1.6-1.3-2.9-2.9-2.9zm0 3.3c-.2 0-.4-.2-.4-.4s.2-.4.4-.4.4.2.4.4-.2.4-.4.4z" fill="#D61F74"/><path d="M61.1 124.8c0 1.7-2.5 1.7-2.5 0s2.5-1.7 2.5 0z" fill="#D61F74"/><path d="M88.1 130c-5.3-10.6-16.7-33.5-22.5-45-1-2-3-3.2-5.2-3.2S56.2 83 55.2 85c-5.8 11.5-17.2 34.4-22.5 45-.9 1.8-.8 4 .3 5.7 1.1 1.7 2.9 2.8 5 2.8h45c2 0 3.9-1 5-2.8.9-1.7 1-3.9.1-5.7zm-3.5 3.7c-.4.6-1 .9-1.7.9h-45c-.7 0-1.3-.4-1.7-.9-.4-.6-.4-1.3-.1-1.9l22.5-45c.3-.7 1-1.1 1.8-1.1s1.4.4 1.8 1.1l22.5 45c.3.6.2 1.3-.1 1.9zM39.4 101.6c.4.4.9.7 1.5.7h.1c.6 0 1.1-.2 1.5-.6.5-.4.7-.9.7-1.5s-.2-1.2-.6-1.6c-2.2-2.5-4.9-4.3-8-5.6V10.4c0-2.8-1.1-5.4-3-7.4-2-2-4.6-3-7.3-3-2.8 0-5.4 1.1-7.3 3-1.9 1.9-3 4.6-3 7.3V94c0 1.2 1 2.2 2.2 2.2 1 0 1.9-.7 2.2-1.7h.1V10.4c0-1.6.6-3.1 1.7-4.2s2.6-1.7 4.2-1.7 3.1.6 4.2 1.7 1.7 2.6 1.7 4.2V94c0 .2.1.3.2.4 0 .3-.1.7 0 1 .3.5.7.9 1.3 1.1 2.9 1.1 5.5 2.8 7.6 5.1z" fill="#333739"/><path d="M24.5 134.5c-11 0-20-8.9-20-19.8 0-8.7 4.9-16 12.4-18.6.6-.2 1-.6 1.3-1.1.3-.5.3-1.1.1-1.7-.2-.6-.6-1-1.1-1.3-.5-.3-1.1-.3-1.7-.1C6 95.2 0 104.1 0 114.7 0 128.1 11 139 24.5 139c1.2 0 2.2-1 2.2-2.2 0-1.2-1-2.3-2.2-2.3z" fill="#333739"/><path d="M24.3 19.3c-1.2 0-2.2 1-2.2 2.2v86.7c0 1.2 1 2.2 2.2 2.2 1.2 0 2.2-1 2.2-2.2V21.5c0-1.2-1-2.2-2.2-2.2z" fill="#D61F74"/><path d="M28.4 125.8c-1.5.7-2.3.8-4.1.8-6.7 0-12.2-5.5-12.2-12.2 0-6.8 5.5-12.2 12.2-12.2 5.6 0 10 3.4 11.4 8.6" fill="#D61F74"/><path d="M27.7 124.2c-1.3.5-2 .7-3.4.7-5.8 0-10.5-4.7-10.5-10.5s4.7-10.5 10.5-10.5c4.8 0 8.6 2.9 9.8 7.3.2.9 1.2 1.4 2.1 1.2.9-.2 1.4-1.2 1.2-2.1-1.6-5.9-6.6-9.8-13-9.8-7.7 0-13.9 6.2-13.9 13.9s6.2 13.9 13.9 13.9c2 0 3-.2 4.8-1 .9-.4 1.2-1.4.9-2.2-.6-.9-1.5-1.3-2.4-.9z" fill="#D61F74"/><path d="M34.2 109.9L26.9 125c-.4.8-.1 1.8.8 2.2.8.4 1.8.1 2.3-.8l7.3-15.1c.4-.8.1-1.8-.8-2.2-.9-.3-1.9 0-2.3.8z" fill="#D61F74"/><path d="M8 29.6H3.9c-1.2 0-2.2 1-2.2 2.2 0 1.2 1 2.2 2.2 2.2H8c1.2 0 2.2-1 2.2-2.2 0-1.2-1-2.2-2.2-2.2zM8 62.2H3.9c-1.2 0-2.2 1-2.2 2.2 0 1.2 1 2.2 2.2 2.2H8c1.2 0 2.2-1 2.2-2.2 0-1.2-1-2.2-2.2-2.2zM8 78.5H3.9c-1.2 0-2.2 1-2.2 2.2 0 1.2 1 2.2 2.2 2.2H8c1.2 0 2.2-1 2.2-2.2 0-1.2-1-2.2-2.2-2.2z" fill="#333739"/><path d="M3.9 17.7H8c1.2 0 2.2-1 2.2-2.2 0-1.2-1-2.2-2.2-2.2H3.9c-1.2 0-2.2 1-2.2 2.2 0 1.2 1 2.2 2.2 2.2z" fill="#D61F74"/><path d="M8 45.9H3.9c-1.2 0-2.2 1-2.2 2.2 0 1.2 1 2.2 2.2 2.2H8c1.2 0 2.2-1 2.2-2.2 0-1.2-1-2.2-2.2-2.2z" fill="#333739"/></g><defs><clipPath id="uclip0_51_52"><path fill="#fff" d="M0 0h88.7v139H0z"/></clipPath></defs></symbol></svg>